<svg width="48" height="48" viewBox="0 0 48 48" fill="none" xmlns="http://www.w3.org/2000/svg">
<g clip-path="url(#clip0_2_2481)">
<path d="M9.07112 16.4443C9.63512 15.7383 10.0191 14.7883 9.91912 13.8203C9.09112 13.8603 8.08112 14.3643 7.49712 15.0723C6.97312 15.6783 6.50712 16.6663 6.62912 17.5963C7.55712 17.6763 8.48512 17.1323 9.07112 16.4443Z" fill="white"/>
<path d="M9.90762 17.7788C8.55962 17.6988 7.41162 18.5448 6.76762 18.5448C6.12362 18.5448 5.13762 17.8208 4.06962 17.8388C2.68162 17.8588 1.39362 18.6448 0.687624 19.8928C-0.762376 22.3908 0.305624 26.0948 1.71362 28.1288C2.39762 29.1348 3.22362 30.2428 4.30962 30.2028C5.33562 30.1628 5.73962 29.5388 6.98762 29.5388C8.23562 29.5388 8.59762 30.2028 9.68362 30.1828C10.8116 30.1628 11.5156 29.1768 12.1996 28.1688C12.9856 27.0208 13.3056 25.9148 13.3256 25.8528C13.3056 25.8328 11.1516 25.0068 11.1316 22.5308C11.1116 20.4568 12.8216 19.4708 12.9036 19.4088C11.9416 17.9808 10.4316 17.8188 9.90762 17.7788Z" fill="white"/>
<path d="M21.6524 14.9707C24.5844 14.9707 26.6244 16.9907 26.6244 19.9327C26.6244 22.8847 24.5404 24.9167 21.5784 24.9167H18.3324V30.0787H15.9884V14.9707H21.6524ZM18.3324 22.9487H21.0224C23.0644 22.9487 24.2264 21.8487 24.2264 19.9447C24.2264 18.0387 23.0644 16.9507 21.0344 16.9507H18.3344L18.3324 22.9487Z" fill="white"/>
<path d="M27.2365 26.9482C27.2365 25.0222 28.7125 23.8382 31.3305 23.6922L34.3445 23.5142V22.6662C34.3445 21.4422 33.5165 20.7082 32.1365 20.7082C30.8285 20.7082 30.0105 21.3362 29.8125 22.3202H27.6765C27.8025 20.3302 29.4985 18.8662 32.2205 18.8662C34.8905 18.8662 36.5965 20.2802 36.5965 22.4882V30.0782H34.4285V28.2662H34.3765C33.7385 29.4902 32.3465 30.2662 30.9005 30.2662C28.7445 30.2662 27.2365 28.9262 27.2365 26.9482ZM34.3445 25.9522V25.0842L31.6325 25.2522C30.2825 25.3462 29.5185 25.9422 29.5185 26.8862C29.5185 27.8482 30.3145 28.4782 31.5285 28.4782C33.1105 28.4762 34.3445 27.3862 34.3445 25.9522Z" fill="white"/>
<path d="M38.6428 34.1285V32.2965C38.8108 32.3385 39.1868 32.3385 39.3748 32.3385C40.4208 32.3385 40.9868 31.8985 41.3328 30.7685C41.3328 30.7485 41.5328 30.0985 41.5328 30.0885L37.5548 19.0645H40.0048L42.7888 28.0265H42.8308L45.6148 19.0645H48.0008L43.8768 30.6525C42.9348 33.3225 41.8468 34.1805 39.5648 34.1805C39.3748 34.1805 38.8088 34.1605 38.6428 34.1285Z" fill="white"/>
</g>
<defs>
<clipPath id="clip0_2_2481">
<rect width="48" height="48" fill="white"/>
</clipPath>
</defs>
</svg>
