<svg width="104" height="52" viewBox="0 0 104 52" fill="none" xmlns="http://www.w3.org/2000/svg">
<path d="M18.2802 37.1791C25.4767 26.7254 35.2791 16.9456 47.3514 12.4268C51.0191 11.0474 56.0507 9.99066 59.4826 12.5307C63.8767 15.8744 62.2504 25.9172 56.1922 26.4431C52.9046 26.7025 51.0372 23.1499 52.0484 20.3357C52.5576 18.6702 53.7918 17.349 55.2056 16.2431C67.0753 6.49145 84.6462 2.35134 98.9043 9.2954" stroke="black" stroke-width="2.7411" stroke-miterlimit="10" stroke-linecap="round" stroke-linejoin="round"/>
<path d="M27.9506 41.5987C24.0817 42.1239 10.6538 50.182 6.87823 50.5565C7.60265 48.7115 8.05428 46.8019 8.62794 44.8636C9.26611 42.6525 9.50947 40.4057 9.63081 38.1876" stroke="black" stroke-width="2.7411" stroke-miterlimit="10" stroke-linecap="round" stroke-linejoin="round"/>
</svg>
