<svg width="25" height="25" viewBox="0 0 25 25" fill="none" xmlns="http://www.w3.org/2000/svg">
<path d="M3.25 14.7915C3.25 19.7915 7.27944 23.7915 12.25 23.7915C17.2206 23.7915 21.25 19.7915 21.25 14.7915C21.25 7.74385 15.7312 3.76221 13.3368 2.36639C13.0355 2.19073 12.8848 2.1029 12.7183 2.12292C12.5848 2.13896 12.4364 2.23021 12.3619 2.34203C12.2688 2.48162 12.2795 2.66099 12.3009 3.01974C12.4971 6.31225 13.0352 12.7915 9.67857 12.7915C7.52186 12.7915 7.17403 11.0719 7.11793 8.35394C7.10825 7.88514 7.10342 7.65074 6.97461 7.51139C6.87106 7.39937 6.6874 7.33418 6.53639 7.35585C6.34856 7.38282 6.21098 7.54524 5.93582 7.8701C4.80088 9.21 3.25 11.621 3.25 14.7915Z" fill="white"/>
</svg>
