<svg width="40" height="40" viewBox="0 0 40 40" fill="none" xmlns="http://www.w3.org/2000/svg">
<g clip-path="url(#clip0_632_3144)">
<path d="M3.79181 39.7493C2.81116 39.8063 1.8467 39.4803 1.10178 38.84C-0.367259 37.3622 -0.367259 34.9755 1.10178 33.4977L33.2689 1.33049C34.7968 -0.099246 37.1944 -0.0197679 38.6241 1.50816C39.917 2.88986 39.9923 5.01356 38.8005 6.48335L6.44391 38.84C5.70867 39.471 4.7596 39.7965 3.79181 39.7493Z" fill="black"/>
<path d="M35.9209 39.7494C34.927 39.7452 33.9744 39.3506 33.2687 38.6506L1.10147 6.48331C-0.259515 4.89399 -0.0744813 2.50216 1.51483 1.14105C2.93334 -0.0737086 5.02535 -0.0737086 6.44373 1.14105L38.8003 33.3083C40.3279 34.7384 40.4069 37.1361 38.9768 38.6636C38.9199 38.7244 38.8611 38.7832 38.8003 38.84C38.4084 39.1809 37.9505 39.4375 37.4551 39.5939C36.9598 39.7504 36.4376 39.8033 35.9209 39.7494Z" fill="black"/>
</g>
<defs>
<clipPath id="clip0_632_3144">
<rect width="40" height="40" fill="white"/>
</clipPath>
</defs>
</svg>
