<svg width="25" height="25" viewBox="0 0 25 25" fill="none" xmlns="http://www.w3.org/2000/svg">
<path opacity="0.12" d="M4.05499 11.2612H20.055V17.4612C20.055 19.1414 20.055 19.9814 19.728 20.6232C19.4404 21.1877 18.9815 21.6466 18.417 21.9342C17.7752 22.2612 16.9352 22.2612 15.255 22.2612H8.85499C7.17483 22.2612 6.33475 22.2612 5.69302 21.9342C5.12853 21.6466 4.66959 21.1877 4.38197 20.6232C4.05499 19.9814 4.05499 19.1414 4.05499 17.4612V11.2612Z" fill="#4D2F8C"/>
<path d="M20.055 11.2612V17.4612C20.055 19.1414 20.055 19.9814 19.728 20.6232C19.4404 21.1877 18.9815 21.6466 18.417 21.9342C17.7752 22.2612 16.9352 22.2612 15.255 22.2612H8.85499C7.17483 22.2612 6.33475 22.2612 5.69302 21.9342C5.12853 21.6466 4.66959 21.1877 4.38197 20.6232C4.05499 19.9814 4.05499 19.1414 4.05499 17.4612V11.2612M20.055 11.2612H4.05499M20.055 11.2612C21.1596 11.2612 22.055 10.3658 22.055 9.26123C22.055 8.15666 21.1596 7.26123 20.055 7.26123H4.05499C2.95042 7.26123 2.05499 8.15666 2.05499 9.26123C2.05499 10.3658 2.95042 11.2612 4.05499 11.2612M12.055 7.26123V22.2612M12.055 7.26123H15.555C16.9357 7.26123 18.055 6.14194 18.055 4.76123C18.055 3.38052 16.9357 2.26123 15.555 2.26123H15.4748C14.3353 2.26123 13.3308 3.00864 13.0034 4.10004L12.055 7.26123ZM12.055 7.26123H8.55499C7.17428 7.26123 6.05499 6.14194 6.05499 4.76123C6.05499 3.38052 7.17428 2.26123 8.55499 2.26123H8.63522C9.77467 2.26123 10.7792 3.00864 11.1066 4.10004L12.055 7.26123Z" stroke="#4D2F8C" stroke-width="1.5" stroke-linecap="round" stroke-linejoin="round"/>
</svg>
