<svg width="48" height="48" viewBox="0 0 48 48" fill="none" xmlns="http://www.w3.org/2000/svg">
<path d="M4.42578 19.8754H6.07578L5.25078 17.7754L4.42578 19.8754Z" fill="white"/>
<path d="M24.9008 18.075C24.7508 18 24.5258 18 24.3008 18H22.8008V19.2H24.3008C24.5258 19.2 24.7508 19.2 24.9008 19.125C25.0508 19.05 25.1258 18.825 25.1258 18.6C25.2008 18.3 25.0508 18.15 24.9008 18.075Z" fill="white"/>
<path d="M40.95 15.8242V16.7242L40.5 15.8242H36.975V16.7242L36.525 15.8242H31.725C30.9 15.8242 30.225 15.9742 29.625 16.2742V15.8242H26.25V16.2742C25.875 15.9742 25.425 15.8242 24.825 15.8242H12.75L11.925 17.6992L11.1 15.8242H7.275V16.7242L6.825 15.8242H3.6L2.1 19.3492L0.375 23.2492H4.2L4.65 22.0492H5.7L6.15 23.2492H10.5V22.3492L10.875 23.2492H13.05L13.425 22.3492V23.2492H23.85V21.2992H24C24.15 21.2992 24.15 21.2992 24.15 21.5242V23.1742H29.55V22.7242C30 22.9492 30.675 23.1742 31.575 23.1742H33.825L34.275 21.9742H35.325L35.775 23.1742H40.125V22.0492L40.8 23.1742H44.325V15.8242H40.95ZM15.6 22.1242H14.325V17.9992L12.525 22.1242H11.4L9.6 17.9992V22.1242H7.05L6.525 20.9992H3.975L3.525 22.1992H2.1L4.35 16.8742H6.225L8.325 21.8992V16.8742H10.35L12 20.4742L13.5 16.8742H15.6V22.1242ZM20.7 17.9992H17.775V18.9742H20.625V20.0242H17.775V21.0742H20.7V22.1992H16.5V16.8742H20.7V17.9992ZM26.325 20.1742C26.475 20.4742 26.55 20.6992 26.55 21.1492V22.1992H25.275V21.5242C25.275 21.2242 25.275 20.7742 25.05 20.4742C24.825 20.2492 24.6 20.2492 24.15 20.2492H22.8V22.1992H21.525V16.8742H24.375C25.05 16.8742 25.5 16.8742 25.875 17.0992C26.25 17.3242 26.475 17.6992 26.475 18.2992C26.475 19.1242 25.95 19.5742 25.575 19.7242C25.95 19.7992 26.175 20.0242 26.325 20.1742ZM28.575 22.1242H27.3V16.7992H28.575V22.1242ZM43.35 22.1242H41.55L39.15 18.1492V22.1242H36.6L36.15 20.9992H33.525L33.075 22.1992H31.65C31.05 22.1992 30.3 22.0492 29.85 21.5992C29.4 21.1492 29.175 20.5492 29.175 19.5742C29.175 18.8242 29.325 18.0742 29.85 17.4742C30.225 17.0242 30.9 16.8742 31.725 16.8742H32.925V17.9992H31.725C31.275 17.9992 31.05 18.0742 30.75 18.2992C30.525 18.5242 30.375 18.9742 30.375 19.4992C30.375 20.0992 30.45 20.4742 30.75 20.7742C30.975 20.9992 31.275 21.0742 31.65 21.0742H32.175L33.9 16.9492H35.775L37.875 21.9742V16.9492H39.75L41.925 20.6242V16.9492H43.2V22.1242H43.35Z" fill="white"/>
<path d="M33.9753 19.8754H35.7003L34.8753 17.7754L33.9753 19.8754ZM21.2253 30.6754V26.4004L19.2753 28.5004L21.2253 30.6754Z" fill="white"/>
<path d="M13.1992 26.9258V27.9008H15.9742V28.9508H13.1992V30.0758H16.2742L17.6992 28.5008L16.3492 26.9258H13.1992Z" fill="white"/>
<path d="M24.075 26.9258H22.5V28.2758H24.15C24.6 28.2758 24.9 28.0508 24.9 27.6008C24.825 27.1508 24.525 26.9258 24.075 26.9258Z" fill="white"/>
<path d="M47.2508 28.1992V24.8242H44.1008C43.4258 24.8242 42.9008 24.9742 42.5258 25.2742V24.8242H39.0758C38.5508 24.8242 37.8758 24.9742 37.5758 25.2742V24.8242H31.5008V25.2742C31.0508 24.8992 30.2258 24.8242 29.8508 24.8242H25.8008V25.2742C25.4258 24.8992 24.5258 24.8242 24.0758 24.8242H19.5758L18.5258 25.9492L17.5508 24.8242H10.8008V32.1742H17.4008L18.4508 31.0492L19.4258 32.1742H23.4758V30.4492H24.0008C24.5258 30.4492 25.2008 30.4492 25.7258 30.2242V32.2492H29.1008V30.2992H29.2508C29.4758 30.2992 29.4758 30.2992 29.4758 30.5242V32.2492H39.6758C40.3508 32.2492 41.0258 32.0992 41.4008 31.7992V32.2492H44.6258C45.3008 32.2492 45.9758 32.1742 46.4258 31.8742C47.1758 31.4242 47.6258 30.5992 47.6258 29.6242C47.6258 29.0992 47.4758 28.5742 47.2508 28.1992ZM24.0008 29.3992H22.5008V31.1992H20.1008L18.6008 29.4742L17.0258 31.1992H12.0758V25.8742H17.1008L18.6008 27.5992L20.1758 25.8742H24.1508C25.1258 25.8742 26.2508 26.1742 26.2508 27.5992C26.1758 29.0992 25.1258 29.3992 24.0008 29.3992ZM31.5008 29.0992C31.6508 29.3242 31.7258 29.6242 31.7258 30.0742V31.1242H30.4508V30.4492C30.4508 30.1492 30.4508 29.6242 30.2258 29.3992C30.0758 29.1742 29.7758 29.1742 29.3258 29.1742H27.9758V31.1242H26.7008V25.7992H29.5508C30.1508 25.7992 30.6758 25.7992 31.0508 26.0242C31.4258 26.2492 31.7258 26.6242 31.7258 27.2242C31.7258 28.0492 31.2008 28.4992 30.8258 28.6492C31.2008 28.7992 31.4258 28.9492 31.5008 29.0992ZM36.6758 26.9242H33.7508V27.8992H36.6008V28.9492H33.7508V29.9992H36.6758V31.1242H32.4758V25.7992H36.6758V26.9242ZM39.8258 31.1242H37.4258V29.9992H39.8258C40.0508 29.9992 40.2008 29.9992 40.3508 29.8492C40.4258 29.7742 40.5008 29.6242 40.5008 29.4742C40.5008 29.3242 40.4258 29.1742 40.3508 29.0992C40.2758 29.0242 40.1258 28.9492 39.9008 28.9492C38.7008 28.8742 37.2758 28.9492 37.2758 27.2992C37.2758 26.5492 37.7258 25.7242 39.0758 25.7242H41.5508V26.9992H39.2258C39.0008 26.9992 38.8508 26.9992 38.7008 27.0742C38.5508 27.1492 38.5508 27.2992 38.5508 27.4492C38.5508 27.6742 38.7008 27.7492 38.8508 27.8242C39.0008 27.8992 39.1508 27.8992 39.3008 27.8992H39.9758C40.6508 27.8992 41.1008 28.0492 41.4008 28.3492C41.6258 28.5742 41.7758 28.9492 41.7758 29.4742C41.7758 30.5992 41.1008 31.1242 39.8258 31.1242ZM46.2758 30.5992C45.9758 30.8992 45.4508 31.1242 44.7008 31.1242H42.3008V29.9992H44.7008C44.9258 29.9992 45.0758 29.9992 45.2258 29.8492C45.3008 29.7742 45.3758 29.6242 45.3758 29.4742C45.3758 29.3242 45.3008 29.1742 45.2258 29.0992C45.1508 29.0242 45.0008 28.9492 44.7758 28.9492C43.5758 28.8742 42.1508 28.9492 42.1508 27.2992C42.1508 26.5492 42.6008 25.7242 43.9508 25.7242H46.4258V26.9992H44.1758C43.9508 26.9992 43.8008 26.9992 43.6508 27.0742C43.5008 27.1492 43.5008 27.2992 43.5008 27.4492C43.5008 27.6742 43.5758 27.7492 43.8008 27.8242C43.9508 27.8992 44.1008 27.8992 44.2508 27.8992H44.9258C45.6008 27.8992 46.0508 28.0492 46.3508 28.3492C46.4258 28.3492 46.4258 28.4242 46.4258 28.4242C46.6508 28.7242 46.7258 29.0992 46.7258 29.4742C46.7258 29.9242 46.5758 30.2992 46.2758 30.5992Z" fill="white"/>
<path d="M30.1508 27.075C30.0008 27 29.7758 27 29.5508 27H28.0508V28.2H29.5508C29.7758 28.2 30.0008 28.2 30.1508 28.125C30.3008 28.05 30.3758 27.825 30.3758 27.6C30.4508 27.3 30.3008 27.15 30.1508 27.075Z" fill="white"/>
<path d="M24.9003 18.0754C24.7503 18.0004 24.5253 18.0004 24.3003 18.0004H22.8003V19.2004H24.3003C24.5253 19.2004 24.7503 19.2004 24.9003 19.1254C25.0503 19.0504 25.1253 18.8254 25.1253 18.6004C25.2003 18.3004 25.0503 18.1504 24.9003 18.0754ZM33.9753 19.8754H35.7003L34.8753 17.7754L33.9753 19.8754ZM21.2253 30.6754V26.4004L19.2753 28.5004L21.2253 30.6754ZM24.0753 26.9254H22.5003V28.2754H24.1503C24.6003 28.2754 24.9003 28.0504 24.9003 27.6004C24.8253 27.1504 24.5253 26.9254 24.0753 26.9254ZM30.1503 27.0754C30.0003 27.0004 29.7753 27.0004 29.5503 27.0004H28.0503V28.2004H29.5503C29.7753 28.2004 30.0003 28.2004 30.1503 28.1254C30.3003 28.0504 30.3753 27.8254 30.3753 27.6004C30.4503 27.3004 30.3003 27.1504 30.1503 27.0754Z" fill="white"/>
<path d="M23.5508 30.9742L22.5008 29.8492V31.1242H20.0258L18.5258 29.3992L16.8758 31.1242H11.9258V25.8742H16.9508L18.5258 27.5992L19.2758 26.6992L17.4008 24.8242H10.8008V32.1742H17.4008L18.5258 31.0492L19.5008 32.1742H23.5508V30.9742Z" fill="white"/>
<path d="M15.75 23.1752L14.775 22.1252H14.325V21.6752L13.2 20.5502L12.45 22.1252H11.4L9.6 18.0002V22.1252H7.05L6.525 21.0002H3.975L3.45 22.1252H2.1L4.35 16.8752H6.225L8.325 21.9002V16.8752H9.45L8.4 15.8252H7.275V16.7252L6.9 15.8252H3.6L2.1 19.3502L0.375 23.1752H4.275L4.725 22.0502H5.775L6.3 23.1752H10.5V22.2752L10.875 23.1752H13.05L13.425 22.2752V23.1752H15.75Z" fill="white"/>
<path d="M12.2996 19.7254L11.0996 18.5254L11.9996 20.4754L12.2996 19.7254Z" fill="white"/>
<path d="M46.4247 31.7996C47.0997 31.3496 47.5497 30.5996 47.6247 29.7746L46.5747 28.7246C46.6497 28.9496 46.7247 29.1746 46.7247 29.4746C46.7247 29.9246 46.5747 30.2996 46.2747 30.5996C45.9747 30.8996 45.4497 31.1246 44.6997 31.1246H42.2997V29.9996H44.6997C44.9247 29.9996 45.0747 29.9996 45.2247 29.8496C45.2997 29.7746 45.3747 29.6246 45.3747 29.4746C45.3747 29.3246 45.2997 29.1746 45.2247 29.0996C45.1497 29.0246 44.9997 28.9496 44.7747 28.9496C43.5747 28.8746 42.1497 28.9496 42.1497 27.2996C42.1497 26.5496 42.5997 25.8746 43.7247 25.7246L42.8997 24.8996C42.7497 24.9746 42.6747 25.0496 42.5997 25.0496V24.5996H39.1497C38.6247 24.5996 37.9497 24.7496 37.6497 25.0496V24.5996H31.4997V25.0496C31.0497 24.6746 30.2247 24.5996 29.8497 24.5996H25.7997V25.0496C25.4247 24.6746 24.5247 24.5996 24.0747 24.5996H19.5747L18.5247 25.7246L17.5497 24.5996H16.7247L18.9747 26.8496L20.0997 25.6496H24.0747C25.0497 25.6496 26.1747 25.9496 26.1747 27.3746C26.1747 28.8746 25.1247 29.1746 23.9997 29.1746H22.4997V30.2996L23.6247 31.4246V30.2996H23.9997C24.5247 30.2996 25.1997 30.2996 25.7247 30.0746V32.0996H29.0997V30.1496H29.2497C29.4747 30.1496 29.4747 30.1496 29.4747 30.3746V32.0996H39.6747C40.3497 32.0996 41.0247 31.9496 41.3997 31.6496V32.0996H44.6247C45.2247 32.1746 45.8997 32.0996 46.4247 31.7996ZM31.4997 29.0996C31.6497 29.3246 31.7247 29.6246 31.7247 30.0746V31.1246H30.4497V30.4496C30.4497 30.1496 30.4497 29.6246 30.2247 29.3996C30.0747 29.1746 29.7747 29.1746 29.3247 29.1746H27.9747V31.1246H26.6997V25.7996H29.5497C30.1497 25.7996 30.6747 25.7996 31.0497 26.0246C31.4247 26.2496 31.7247 26.6246 31.7247 27.2246C31.7247 28.0496 31.1997 28.4996 30.8247 28.6496C31.1997 28.7996 31.4247 28.9496 31.4997 29.0996ZM36.6747 26.9246H33.7497V27.8996H36.5997V28.9496H33.7497V29.9996H36.6747V31.1246H32.4747V25.7996H36.6747V26.9246ZM39.8247 31.1246H37.4247V29.9996H39.8247C40.0497 29.9996 40.1997 29.9996 40.3497 29.8496C40.4247 29.7746 40.4997 29.6246 40.4997 29.4746C40.4997 29.3246 40.4247 29.1746 40.3497 29.0996C40.2747 29.0246 40.1247 28.9496 39.8997 28.9496C38.6997 28.8746 37.2747 28.9496 37.2747 27.2996C37.2747 26.5496 37.7247 25.7246 39.0747 25.7246H41.5497V26.9996H39.2247C38.9997 26.9996 38.8497 26.9996 38.6997 27.0746C38.5497 27.1496 38.5497 27.2996 38.5497 27.4496C38.5497 27.6746 38.6997 27.7496 38.8497 27.8246C38.9997 27.8996 39.1497 27.8996 39.2997 27.8996H39.9747C40.6497 27.8996 41.0997 28.0496 41.3997 28.3496C41.6247 28.5746 41.7747 28.9496 41.7747 29.4746C41.7747 30.5996 41.0997 31.1246 39.8247 31.1246Z" fill="white"/>
<path d="M43.424 27.45C43.424 27.675 43.4989 27.75 43.7239 27.825C43.8739 27.9 44.024 27.9 44.174 27.9H44.8489C45.2989 27.9 45.5989 27.975 45.8989 28.125L44.7739 27H44.0989C43.8739 27 43.7239 27 43.5739 27.075C43.4989 27.15 43.424 27.3 43.424 27.45Z" fill="white"/>
<path d="M40.7998 22.9512L40.9498 23.1762H41.0248L40.7998 22.9512ZM36.6748 18.8262L37.9498 21.9012V20.1012L36.6748 18.8262Z" fill="white"/>
<path d="M23.8498 21.3004H23.9998C24.1498 21.3004 24.1498 21.3004 24.1498 21.5254V23.1754H29.5498V22.7254C29.9998 22.9504 30.6748 23.1754 31.5748 23.1754H33.8248L34.2748 21.9754H35.3248L35.7748 23.1754H40.1248V22.4254L39.0748 21.3754V22.2004H36.5248L36.1498 21.0004H33.5248L33.0748 22.2004H31.6498C31.0498 22.2004 30.2998 22.0504 29.8498 21.6004C29.3998 21.1504 29.1748 20.5504 29.1748 19.5754C29.1748 18.8254 29.3248 18.0754 29.8498 17.4754C30.2248 17.0254 30.8998 16.8754 31.7248 16.8754H32.9248V18.0004H31.7248C31.2748 18.0004 31.0498 18.0754 30.7498 18.3004C30.5248 18.5254 30.3748 18.9754 30.3748 19.5004C30.3748 20.1004 30.4498 20.4754 30.7498 20.7754C30.9748 21.0004 31.2748 21.0754 31.6498 21.0754H32.1748L33.8998 16.9504H34.6498L33.5998 15.9004H31.6498C30.8248 15.9004 30.1498 16.0504 29.5498 16.3504V15.9004H26.2498V16.3504C25.8748 16.0504 25.4248 15.9004 24.8248 15.9004H12.7498L11.9248 17.7754L11.0998 15.9004H7.7998L8.84981 16.9504H10.3498L11.6248 19.7254L12.0748 20.1754L13.4248 16.8754H15.5248V22.2004H14.2498V18.0754L12.9748 21.0754L15.1498 23.2504H23.7748L23.8498 21.3004ZM27.2998 16.8754H28.5748V22.2004H27.2998V16.8754ZM20.6998 18.0004H17.7748V18.9754H20.6248V20.0254H17.7748V21.0754H20.6998V22.2004H16.4998V16.8754H20.6998V18.0004ZM22.7998 22.1254H21.5248V16.8004H24.3748C25.0498 16.8004 25.4998 16.8004 25.8748 17.0254C26.2498 17.2504 26.4748 17.6254 26.4748 18.2254C26.4748 19.0504 25.9498 19.5004 25.5748 19.6504C25.8748 19.7254 26.0998 19.9504 26.1748 20.1004C26.3248 20.4004 26.3998 20.6254 26.3998 21.0754V22.1254H25.1248V21.4504C25.1248 21.1504 25.1248 20.7004 24.8998 20.4004C24.8248 20.2504 24.5998 20.2504 24.1498 20.2504H22.7998V22.1254Z" fill="white"/>
</svg>
