<svg width="20" height="20" viewBox="0 0 20 20" fill="none" xmlns="http://www.w3.org/2000/svg">
<g clip-path="url(#clip0_2_1356)">
<path d="M15 0.625C15.1417 0.625023 15.2792 0.673185 15.3899 0.761591C15.5006 0.849996 15.578 0.973398 15.6094 1.11156L15.9553 2.63219C16.0337 2.97682 16.2079 3.29228 16.4578 3.5422C16.7077 3.79212 17.0232 3.96631 17.3678 4.04469L18.8887 4.39062C19.0268 4.42209 19.1501 4.49953 19.2384 4.61024C19.3268 4.72095 19.3749 4.85838 19.3749 5C19.3749 5.14162 19.3268 5.27905 19.2384 5.38976C19.1501 5.50047 19.0268 5.57791 18.8887 5.60938L17.3678 5.95531C17.0232 6.03369 16.7077 6.20788 16.4578 6.4578C16.2079 6.70772 16.0337 7.02318 15.9553 7.36781L15.6094 8.88844C15.5779 9.02652 15.5005 9.14982 15.3898 9.23814C15.279 9.32646 15.1416 9.37456 15 9.37456C14.8584 9.37456 14.7209 9.32646 14.6102 9.23814C14.4995 9.14982 14.4221 9.02652 14.3906 8.88844L14.0447 7.36781C13.9663 7.02318 13.7921 6.70772 13.5422 6.4578C13.2923 6.20788 12.9768 6.03369 12.6322 5.95531L11.1112 5.60938C10.9732 5.57791 10.8499 5.50047 10.7615 5.38976C10.6732 5.27905 10.6251 5.14162 10.6251 5C10.6251 4.85838 10.6732 4.72095 10.7615 4.61024C10.8499 4.49953 10.9732 4.42209 11.1112 4.39062L12.6322 4.04469C12.9768 3.96631 13.2923 3.79212 13.5422 3.5422C13.7921 3.29228 13.9663 2.97682 14.0447 2.63219L14.3906 1.11156C14.422 0.973398 14.4994 0.849996 14.6101 0.761591C14.7208 0.673185 14.8583 0.625023 15 0.625Z" fill="white"/>
<path fill-rule="evenodd" clip-rule="evenodd" d="M15 10.3125C15.4094 10.3125 15.7881 10.1537 16.0703 9.88844C16.1901 10.4384 16.2504 10.9996 16.25 11.5625C16.25 15.8772 12.7522 19.375 8.4375 19.375C4.12281 19.375 0.625 15.8772 0.625 11.5625C0.625 7.24781 4.12281 3.75 8.4375 3.75C9.01219 3.75 9.57219 3.81219 10.1116 3.92969C9.92305 4.13025 9.79087 4.37705 9.72839 4.64511C9.6659 4.91316 9.67534 5.19297 9.75574 5.45621C9.83614 5.71946 9.98465 5.95679 10.1862 6.14419C10.3878 6.3316 10.6354 6.46243 10.9037 6.52344L12.4244 6.86938C12.5967 6.90857 12.7544 6.99566 12.8794 7.12062C13.0043 7.24558 13.0914 7.40331 13.1306 7.57563L13.4766 9.09656C13.5551 9.44189 13.7486 9.75029 14.0254 9.97121C14.3022 10.1921 14.6459 10.3125 15 10.3125ZM4.6875 10.9375C4.52174 10.9375 4.36277 11.0033 4.24556 11.1206C4.12835 11.2378 4.0625 11.3967 4.0625 11.5625C4.0625 11.7283 4.12835 11.8872 4.24556 12.0044C4.36277 12.1217 4.52174 12.1875 4.6875 12.1875H7.8125V15.3125C7.8125 15.4783 7.87835 15.6372 7.99556 15.7544C8.11277 15.8717 8.27174 15.9375 8.4375 15.9375C8.60326 15.9375 8.76223 15.8717 8.87944 15.7544C8.99665 15.6372 9.0625 15.4783 9.0625 15.3125V12.1875H12.1875C12.3533 12.1875 12.5122 12.1217 12.6294 12.0044C12.7467 11.8872 12.8125 11.7283 12.8125 11.5625C12.8125 11.3967 12.7467 11.2378 12.6294 11.1206C12.5122 11.0033 12.3533 10.9375 12.1875 10.9375H9.0625V7.8125C9.0625 7.64674 8.99665 7.48777 8.87944 7.37056C8.76223 7.25335 8.60326 7.1875 8.4375 7.1875C8.27174 7.1875 8.11277 7.25335 7.99556 7.37056C7.87835 7.48777 7.8125 7.64674 7.8125 7.8125V10.9375H4.6875Z" fill="white"/>
</g>
<defs>
<clipPath id="clip0_2_1356">
<rect width="20" height="20" fill="white"/>
</clipPath>
</defs>
</svg>
