<svg width="48" height="48" viewBox="0 0 48 48" fill="none" xmlns="http://www.w3.org/2000/svg">
<path d="M22.4037 23.744V29.2966H20.6416V15.585H25.3131C26.497 15.585 27.5065 15.9796 28.3326 16.7689C29.177 17.5582 29.5991 18.5219 29.5991 19.6599C29.5991 20.8255 29.177 21.7891 28.3326 22.5692C27.5157 23.3493 26.5062 23.7348 25.3131 23.7348H22.4037V23.744ZM22.4037 17.2737V22.0553H25.3498C26.0473 22.0553 26.6348 21.8167 27.0936 21.3486C27.5617 20.8805 27.8003 20.3116 27.8003 19.6691C27.8003 19.0358 27.5617 18.4759 27.0936 18.0079C26.6347 17.5215 26.0565 17.2829 25.3498 17.2829H22.4037V17.2737Z" fill="white"/>
<path d="M34.2056 19.6045C35.5088 19.6045 36.5368 19.9532 37.2893 20.6507C38.042 21.3482 38.4182 22.3027 38.4182 23.5142V29.2963H36.7386V27.9931H36.6652C35.9402 29.0669 34.9673 29.5992 33.7559 29.5992C32.7188 29.5992 31.8561 29.2963 31.1586 28.6814C30.4611 28.0665 30.1123 27.3046 30.1123 26.3869C30.1123 25.4141 30.4794 24.6432 31.2137 24.0741C31.9479 23.496 32.93 23.2114 34.1506 23.2114C35.1968 23.2114 36.0596 23.4042 36.7296 23.7896V23.3858C36.7296 22.7709 36.491 22.257 36.0045 21.8256C35.518 21.3943 34.9491 21.1831 34.2974 21.1831C33.3154 21.1831 32.5353 21.5961 31.9662 22.4313L30.4151 21.4585C31.2687 20.2194 32.5353 19.6045 34.2056 19.6045ZM31.9296 26.4144C31.9296 26.8733 32.1223 27.2588 32.5169 27.5616C32.9024 27.8645 33.3613 28.0205 33.8844 28.0205C34.6279 28.0205 35.2886 27.7452 35.8669 27.1945C36.4451 26.6438 36.7387 26.0013 36.7387 25.258C36.1881 24.8266 35.4263 24.6063 34.4443 24.6063C33.7284 24.6063 33.1319 24.7807 32.6546 25.1203C32.1681 25.4782 31.9296 25.9096 31.9296 26.4144Z" fill="white"/>
<path d="M47.9999 19.9072L42.1261 33.417H40.3088L42.4931 28.6904L38.6201 19.9072H40.5382L43.3283 26.6437H43.3651L46.0817 19.9072H47.9999Z" fill="white"/>
<path d="M15.2476 20.9707H7.86133V23.9994L12.1152 24.0003C11.9427 25.008 11.3875 25.8671 10.5367 26.4398V26.4404C10.537 26.4402 10.5373 26.44 10.5376 26.4398L10.461 28.25L13.0698 28.4039C13.0694 28.4041 13.069 28.4045 13.0688 28.4048C14.5473 27.0364 15.3945 25.0136 15.3945 22.6237C15.3944 22.0491 15.343 21.4994 15.2476 20.9707Z" fill="#0085F7"/>
<path d="M10.5364 26.4402C10.5362 26.4404 10.5358 26.4406 10.5355 26.4408C9.83078 26.9158 8.92337 27.1937 7.86203 27.1937C5.81078 27.1937 4.07069 25.8116 3.44753 23.9485H3.44725C3.44734 23.9487 3.44744 23.9491 3.44753 23.9494L1.26962 23.6045L0.835938 25.9755C2.13016 28.5431 4.78966 30.305 7.86212 30.305C9.98528 30.305 11.7691 29.6069 13.0677 28.4051C13.0681 28.4049 13.0684 28.4046 13.0687 28.4042L10.5364 26.4402Z" fill="#00A94B"/>
<path d="M3.20212 22.4448C3.20212 21.9217 3.28931 21.416 3.44812 20.9406L2.76806 18.9141H0.836063C0.301031 19.976 0 21.1746 0 22.4448C0 23.715 0.301969 24.9136 0.836063 25.9755L0.836437 25.9752L3.44812 23.949C3.44803 23.9487 3.44794 23.9484 3.44784 23.9481C3.28922 23.473 3.20212 22.9676 3.20212 22.4448Z" fill="#FFBB00"/>
<path d="M7.8625 14.584C4.79069 14.584 2.13006 16.3461 0.835938 18.9141L3.44791 20.9406C4.07106 19.0775 5.81116 17.6954 7.86241 17.6954C9.02153 17.6954 10.0596 18.0946 10.8792 18.8747L13.1232 16.6326C11.7603 15.3631 9.9835 14.584 7.8625 14.584Z" fill="#FF4031"/>
</svg>
