<svg width="17" height="35" viewBox="0 0 17 35" fill="none" xmlns="http://www.w3.org/2000/svg">
<g opacity="0.5">
<path d="M1.55621 33.1762C1.65682 33.1762 1.73839 33.2577 1.73839 33.3583C1.73839 33.459 1.65682 33.5405 1.55621 33.5405C1.45559 33.5405 1.37402 33.459 1.37402 33.3583C1.37402 33.2577 1.45559 33.1762 1.55621 33.1762Z" fill="#8B64FD"/>
<path d="M4.11433 33.2002C4.20062 33.2002 4.27254 33.2721 4.27254 33.3584C4.27254 33.4447 4.20062 33.5166 4.11433 33.5166C4.02803 33.5166 3.95612 33.4447 3.95612 33.3584C3.95612 33.2721 4.02803 33.2002 4.11433 33.2002Z" fill="#8B64FD"/>
<path d="M6.7799 33.3144C6.80422 33.3731 6.77634 33.4404 6.71763 33.4647C6.65892 33.489 6.59161 33.4612 6.56729 33.4024C6.54297 33.3437 6.57085 33.2764 6.62956 33.2521C6.68827 33.2278 6.75558 33.2557 6.7799 33.3144Z" fill="#8B64FD"/>
<path d="M9.23722 33.3014C9.27078 33.3014 9.29475 33.3254 9.29475 33.359C9.29475 33.3925 9.27078 33.4165 9.23722 33.4165C9.20366 33.4165 9.17969 33.3925 9.17969 33.359C9.17969 33.3254 9.20366 33.3014 9.23722 33.3014Z" fill="#8B64FD"/>
<path d="M11.7943 33.3496C11.7986 33.3496 11.7986 33.3539 11.7986 33.3539C11.7986 33.3582 11.7943 33.3582 11.7943 33.3582C11.7901 33.3582 11.7901 33.3539 11.7901 33.3539C11.7858 33.3539 11.7901 33.3496 11.7943 33.3496Z" fill="#8B64FD"/>
<path d="M1.55409 30.4913C1.72188 30.4913 1.86092 30.6256 1.86092 30.7981C1.86092 30.9659 1.72188 31.105 1.55409 31.105C1.38629 31.105 1.24725 30.9659 1.24725 30.7981C1.25205 30.6304 1.38629 30.4913 1.55409 30.4913Z" fill="#8B64FD"/>
<path d="M4.11223 30.5299C4.26085 30.5299 4.3807 30.6498 4.3807 30.7984C4.3807 30.947 4.26085 31.0669 4.11223 31.0669C3.96361 31.0669 3.84375 30.947 3.84375 30.7984C3.84375 30.6498 3.96361 30.5299 4.11223 30.5299Z" fill="#8B64FD"/>
<path d="M6.6746 30.5777C6.79446 30.5777 6.89514 30.6784 6.89514 30.7983C6.89514 30.9181 6.79446 31.0188 6.6746 31.0188C6.55475 31.0188 6.45407 30.9181 6.45407 30.7983C6.45407 30.6784 6.55475 30.5777 6.6746 30.5777Z" fill="#8B64FD"/>
<path d="M9.23465 30.65C9.31615 30.65 9.38327 30.7171 9.38327 30.7986C9.38327 30.8801 9.31615 30.9473 9.23465 30.9473C9.15315 30.9473 9.08603 30.8801 9.08603 30.7986C9.08603 30.7171 9.15315 30.65 9.23465 30.65Z" fill="#8B64FD"/>
<path d="M11.7954 30.7268C11.8337 30.7268 11.8673 30.7603 11.8673 30.7987C11.8673 30.837 11.8337 30.8706 11.7954 30.8706C11.757 30.8706 11.7235 30.837 11.7235 30.7987C11.7235 30.7603 11.757 30.7268 11.7954 30.7268Z" fill="#8B64FD"/>
<path d="M14.3528 30.7954C14.355 30.7954 14.3567 30.7971 14.3567 30.7993C14.3567 30.8015 14.355 30.8032 14.3528 30.8032C14.3506 30.8032 14.3489 30.8015 14.3489 30.7993C14.3489 30.7971 14.3506 30.7954 14.3528 30.7954Z" fill="#8B64FD"/>
<path d="M1.85728 27.9358C2.02391 28.1025 2.02391 28.3726 1.85728 28.5393C1.69065 28.7059 1.42049 28.7059 1.25386 28.5393C1.08723 28.3726 1.08723 28.1025 1.25386 27.9358C1.42049 27.7692 1.69065 27.7692 1.85728 27.9358Z" fill="#8B64FD"/>
<path d="M4.11401 27.8552C4.32495 27.8552 4.49755 28.0278 4.49755 28.2388C4.49755 28.4497 4.32495 28.6223 4.11401 28.6223C3.90306 28.6223 3.73047 28.4497 3.73047 28.2388C3.73047 28.0278 3.90306 27.8552 4.11401 27.8552Z" fill="#8B64FD"/>
<path d="M6.67201 27.9164C6.8494 27.9164 6.99323 28.0602 6.99323 28.2376C6.99323 28.415 6.8494 28.5588 6.67201 28.5588C6.49463 28.5588 6.3508 28.415 6.3508 28.2376C6.3508 28.0602 6.49463 27.9164 6.67201 27.9164Z" fill="#8B64FD"/>
<path d="M9.23483 27.9986C9.36907 27.9986 9.47454 28.1089 9.47454 28.2383C9.47454 28.3726 9.36427 28.478 9.23483 28.478C9.10059 28.478 8.99512 28.3678 8.99512 28.2383C8.99512 28.1041 9.10059 27.9986 9.23483 27.9986Z" fill="#8B64FD"/>
<path d="M11.7963 28.0905C11.8778 28.0905 11.9449 28.1576 11.9449 28.2391C11.9449 28.3206 11.8778 28.3877 11.7963 28.3877C11.7148 28.3877 11.6477 28.3206 11.6477 28.2391C11.6477 28.1576 11.7148 28.0905 11.7963 28.0905Z" fill="#8B64FD"/>
<path d="M14.3554 28.1803C14.3872 28.1803 14.4129 28.2061 14.4129 28.2379C14.4129 28.2697 14.3872 28.2954 14.3554 28.2954C14.3236 28.2954 14.2979 28.2697 14.2979 28.2379C14.2979 28.2061 14.3236 28.1803 14.3554 28.1803Z" fill="#8B64FD"/>
<path d="M1.65864 25.146C1.95198 25.205 2.14199 25.4905 2.08305 25.7839C2.02411 26.0772 1.73853 26.2672 1.44519 26.2083C1.15186 26.1493 0.961845 25.8638 1.02079 25.5704C1.07973 25.2771 1.36531 25.0871 1.65864 25.146Z" fill="#8B64FD"/>
<path d="M4.11517 25.1988C4.38365 25.1988 4.59939 25.4145 4.59939 25.683C4.59939 25.9515 4.38365 26.1672 4.11517 26.1672C3.84669 26.1672 3.63095 25.9515 3.63095 25.683C3.63575 25.4145 3.85149 25.1988 4.11517 25.1988Z" fill="#8B64FD"/>
<path d="M6.67597 25.266C6.9013 25.266 7.08828 25.4481 7.08828 25.6783C7.08828 25.9036 6.9061 26.0906 6.67597 26.0906C6.45065 26.0906 6.26367 25.9084 6.26367 25.6783C6.26367 25.4529 6.45065 25.266 6.67597 25.266Z" fill="#8B64FD"/>
<path d="M9.23625 25.3617C9.41364 25.3617 9.55746 25.5055 9.55746 25.6829C9.55746 25.8603 9.41364 26.0042 9.23625 26.0042C9.05887 26.0042 8.91504 25.8603 8.91504 25.6829C8.91504 25.5008 9.05887 25.3617 9.23625 25.3617Z" fill="#8B64FD"/>
<path d="M11.7946 25.4579C11.9145 25.4579 12.0152 25.5585 12.0152 25.6784C12.0152 25.7982 11.9145 25.8989 11.7946 25.8989C11.6748 25.8989 11.5741 25.7982 11.5741 25.6784C11.5741 25.5585 11.67 25.4579 11.7946 25.4579Z" fill="#8B64FD"/>
<path d="M14.3563 25.5675C14.4186 25.5675 14.4713 25.6202 14.4713 25.6825C14.4713 25.7449 14.4186 25.7976 14.3563 25.7976C14.2939 25.7976 14.2412 25.7449 14.2412 25.6825C14.2412 25.6154 14.2939 25.5675 14.3563 25.5675Z" fill="#8B64FD"/>
<path d="M16.913 25.6592C16.9226 25.6592 16.9322 25.6687 16.9322 25.6783C16.9322 25.6879 16.9226 25.6975 16.913 25.6975C16.9034 25.6975 16.8938 25.6879 16.8938 25.6783C16.889 25.6687 16.8986 25.6592 16.913 25.6592Z" fill="#8B64FD"/>
<path d="M1.55433 22.4655C1.9139 22.4655 2.20634 22.7579 2.20634 23.1175C2.20634 23.4771 1.9139 23.7695 1.55433 23.7695C1.19476 23.7695 0.902313 23.4771 0.902313 23.1175C0.902313 22.7579 1.19476 22.4655 1.55433 22.4655Z" fill="#8B64FD"/>
<path d="M4.1155 22.538C4.43672 22.538 4.69561 22.7969 4.69561 23.1181C4.69561 23.4394 4.43672 23.6982 4.1155 23.6982C3.79429 23.6982 3.5354 23.4394 3.5354 23.1181C3.5354 22.7969 3.79429 22.538 4.1155 22.538Z" fill="#8B64FD"/>
<path d="M6.80612 22.648C7.06634 22.7203 7.2187 22.9898 7.14643 23.25C7.07416 23.5102 6.80462 23.6626 6.54441 23.5903C6.28419 23.5181 6.13183 23.2485 6.2041 22.9883C6.27637 22.7281 6.54591 22.5757 6.80612 22.648Z" fill="#8B64FD"/>
<path d="M9.23315 22.7344C9.44409 22.7344 9.61669 22.907 9.61669 23.1179C9.61669 23.3289 9.44409 23.5015 9.23315 23.5015C9.0222 23.5015 8.84961 23.3289 8.84961 23.1179C8.84961 22.907 9.0222 22.7344 9.23315 22.7344Z" fill="#8B64FD"/>
<path d="M11.7947 22.845C11.9481 22.845 12.0727 22.9696 12.0727 23.1231C12.0727 23.2765 11.9481 23.4011 11.7947 23.4011C11.6413 23.4011 11.5166 23.2765 11.5166 23.1231C11.5166 22.9648 11.6413 22.845 11.7947 22.845Z" fill="#8B64FD"/>
<path d="M14.3534 22.9548C14.4445 22.9548 14.5164 23.0267 14.5164 23.1178C14.5164 23.2088 14.4445 23.2808 14.3534 23.2808C14.2623 23.2808 14.1904 23.2088 14.1904 23.1178C14.1904 23.0315 14.2623 22.9548 14.3534 22.9548Z" fill="#8B64FD"/>
<path d="M16.9138 23.0704C16.9426 23.0704 16.9617 23.0943 16.9617 23.1183C16.9617 23.1471 16.9378 23.1663 16.9138 23.1663C16.8898 23.1663 16.8658 23.1423 16.8658 23.1183C16.8611 23.0943 16.885 23.0704 16.9138 23.0704Z" fill="#8B64FD"/>
<path d="M2.25387 20.2702C2.41296 20.6542 2.23058 21.0946 1.84651 21.2537C1.46244 21.4127 1.02213 21.2304 0.863038 20.8463C0.703949 20.4622 0.88633 20.0219 1.2704 19.8628C1.65446 19.7037 2.09478 19.8861 2.25387 20.2702Z" fill="#8B64FD"/>
<path d="M4.11381 19.9057C4.47338 19.9057 4.76582 20.1981 4.76582 20.5577C4.76582 20.9173 4.47338 21.2097 4.11381 21.2097C3.75424 21.2097 3.46179 20.9173 3.46179 20.5577C3.46179 20.1981 3.75424 19.9057 4.11381 19.9057Z" fill="#8B64FD"/>
<path d="M7.17653 20.3541C7.28986 20.6311 7.15726 20.9474 6.88035 21.0607C6.60344 21.1741 6.28709 21.0415 6.17375 20.7646C6.06041 20.4877 6.19302 20.1713 6.46992 20.058C6.74683 19.9446 7.06319 20.0772 7.17653 20.3541Z" fill="#8B64FD"/>
<path d="M9.33536 20.1424C9.56477 20.1963 9.70701 20.426 9.65307 20.6554C9.59913 20.8849 9.36943 21.0271 9.14002 20.9732C8.91061 20.9192 8.76837 20.6895 8.82231 20.4601C8.87625 20.2307 9.10595 20.0885 9.33536 20.1424Z" fill="#8B64FD"/>
<path d="M11.7931 20.2466C11.9657 20.2466 12.1047 20.3857 12.1047 20.5582C12.1047 20.7308 11.9657 20.8699 11.7931 20.8699C11.6205 20.8699 11.4814 20.7308 11.4814 20.5582C11.4814 20.3857 11.6205 20.2466 11.7931 20.2466Z" fill="#8B64FD"/>
<path d="M14.3517 20.366C14.4572 20.366 14.5435 20.4523 14.5435 20.5577C14.5435 20.6632 14.4572 20.7495 14.3517 20.7495C14.2462 20.7495 14.1599 20.6632 14.1599 20.5577C14.1599 20.4523 14.2462 20.366 14.3517 20.366Z" fill="#8B64FD"/>
<path d="M16.9166 20.4816C16.9597 20.4816 16.9933 20.5152 16.9933 20.5583C16.9933 20.6014 16.9597 20.635 16.9166 20.635C16.8734 20.635 16.8398 20.6014 16.8398 20.5583C16.8398 20.5152 16.8734 20.4816 16.9166 20.4816Z" fill="#8B64FD"/>
<path d="M1.55357 17.2024C1.99575 17.2024 2.3542 17.5609 2.3542 18.0031C2.3542 18.4453 1.99575 18.8037 1.55357 18.8037C1.11139 18.8037 0.75293 18.4453 0.75293 18.0031C0.75293 17.5609 1.11139 17.2024 1.55357 17.2024Z" fill="#8B64FD"/>
<path d="M4.26916 17.3419C4.63506 17.4283 4.86165 17.7949 4.77525 18.1608C4.68885 18.5268 4.32218 18.7533 3.95627 18.6669C3.59036 18.5805 3.36377 18.2139 3.45018 17.848C3.53658 17.4821 3.90325 17.2555 4.26916 17.3419Z" fill="#8B64FD"/>
<path d="M6.67119 17.4325C6.98281 17.4325 7.23691 17.6866 7.23691 17.9982C7.23691 18.3099 6.98281 18.564 6.67119 18.564C6.35956 18.564 6.10547 18.3099 6.10547 17.9982C6.10547 17.6866 6.35956 17.4325 6.67119 17.4325Z" fill="#8B64FD"/>
<path d="M9.23395 17.5519C9.48325 17.5519 9.67982 17.7532 9.67982 17.9977C9.67982 18.247 9.47846 18.4436 9.23395 18.4436C8.98945 18.4436 8.78809 18.2422 8.78809 17.9977C8.78809 17.7532 8.98465 17.5519 9.23395 17.5519Z" fill="#8B64FD"/>
<path d="M11.7958 17.682C11.9732 17.682 12.117 17.8259 12.117 18.0033C12.117 18.1806 11.9732 18.3245 11.7958 18.3245C11.6184 18.3245 11.4746 18.1806 11.4746 18.0033C11.4746 17.8259 11.6184 17.682 11.7958 17.682Z" fill="#8B64FD"/>
<path d="M14.3556 17.7964C14.4706 17.7964 14.5617 17.8875 14.5617 18.0026C14.5617 18.1177 14.4706 18.2087 14.3556 18.2087C14.2405 18.2087 14.1494 18.1177 14.1494 18.0026C14.1494 17.8875 14.2405 17.7964 14.3556 17.7964Z" fill="#8B64FD"/>
<path d="M16.9134 17.9168C16.9613 17.9168 16.9997 17.9551 16.9997 18.0031C16.9997 18.051 16.9613 18.0894 16.9134 18.0894C16.8654 18.0894 16.8271 18.051 16.8271 18.0031C16.8271 17.9551 16.8654 17.9168 16.9134 17.9168Z" fill="#8B64FD"/>
<path d="M1.5525 14.6897C1.9696 14.6897 2.30519 15.0253 2.30519 15.4424C2.30519 15.8595 1.9696 16.1951 1.5525 16.1951C1.1354 16.1951 0.799805 15.8595 0.799805 15.4424C0.799805 15.0253 1.1402 14.6897 1.5525 14.6897Z" fill="#8B64FD"/>
<path d="M4.11351 14.781C4.47787 14.781 4.77511 15.0783 4.77511 15.4426C4.77511 15.807 4.47787 16.1042 4.11351 16.1042C3.74915 16.1042 3.4519 15.807 3.4519 15.4426C3.4567 15.0783 3.74915 14.781 4.11351 14.781Z" fill="#8B64FD"/>
<path d="M6.8361 14.9195C7.12469 15.008 7.28693 15.3137 7.19846 15.6023C7.10999 15.8909 6.80431 16.0531 6.51571 15.9646C6.22712 15.8762 6.06488 15.5705 6.15336 15.2819C6.24183 14.9933 6.5475 14.8311 6.8361 14.9195Z" fill="#8B64FD"/>
<path d="M9.53557 15.1375C9.70407 15.306 9.70407 15.5792 9.53557 15.7477C9.36707 15.9162 9.09387 15.9162 8.92537 15.7477C8.75687 15.5792 8.75687 15.306 8.92537 15.1375C9.09387 14.969 9.36707 14.969 9.53557 15.1375Z" fill="#8B64FD"/>
<path d="M11.7931 15.1304C11.9657 15.1304 12.1047 15.2694 12.1047 15.442C12.1047 15.6146 11.9657 15.7537 11.7931 15.7537C11.6205 15.7537 11.4814 15.6146 11.4814 15.442C11.4814 15.2694 11.6205 15.1304 11.7931 15.1304Z" fill="#8B64FD"/>
<path d="M14.3517 15.251C14.4572 15.251 14.5435 15.3373 14.5435 15.4428C14.5435 15.5482 14.4572 15.6345 14.3517 15.6345C14.2462 15.6345 14.1599 15.5482 14.1599 15.4428C14.1599 15.3373 14.2462 15.251 14.3517 15.251Z" fill="#8B64FD"/>
<path d="M16.917 15.3605C16.9601 15.3605 16.9937 15.3941 16.9937 15.4372C16.9937 15.4804 16.9601 15.5139 16.917 15.5139C16.8738 15.5139 16.8403 15.4804 16.8403 15.4372C16.8355 15.3989 16.8738 15.3605 16.917 15.3605Z" fill="#8B64FD"/>
<path d="M2.02065 12.4138C2.27902 12.6721 2.27902 13.091 2.02065 13.3494C1.76228 13.6078 1.34338 13.6078 1.08501 13.3494C0.826638 13.091 0.826638 12.6721 1.08501 12.4138C1.34338 12.1554 1.76228 12.1554 2.02065 12.4138Z" fill="#8B64FD"/>
<path d="M4.11411 12.2928C4.44011 12.2928 4.7038 12.5565 4.7038 12.8825C4.7038 13.2085 4.44011 13.4722 4.11411 13.4722C3.7881 13.4722 3.52441 13.2085 3.52441 12.8825C3.52441 12.5565 3.7881 12.2928 4.11411 12.2928Z" fill="#8B64FD"/>
<path d="M6.80612 12.4119C7.06634 12.4842 7.2187 12.7537 7.14643 13.0139C7.07416 13.2742 6.80462 13.4265 6.54441 13.3542C6.28419 13.282 6.13183 13.0124 6.2041 12.7522C6.27637 12.492 6.54591 12.3397 6.80612 12.4119Z" fill="#8B64FD"/>
<path d="M9.23379 12.4897C9.44953 12.4897 9.62213 12.6623 9.62213 12.878C9.62213 13.0938 9.44953 13.2664 9.23379 13.2664C9.01805 13.2664 8.84546 13.0938 8.84546 12.878C8.84546 12.6671 9.01805 12.4897 9.23379 12.4897Z" fill="#8B64FD"/>
<path d="M11.7947 12.6043C11.9481 12.6043 12.0727 12.7289 12.0727 12.8823C12.0727 13.0357 11.9481 13.1604 11.7947 13.1604C11.6413 13.1604 11.5166 13.0357 11.5166 12.8823C11.5166 12.7289 11.6413 12.6043 11.7947 12.6043Z" fill="#8B64FD"/>
<path d="M14.3534 12.7196C14.4435 12.7196 14.5164 12.7926 14.5164 12.8827C14.5164 12.9727 14.4435 13.0457 14.3534 13.0457C14.2634 13.0457 14.1904 12.9727 14.1904 12.8827C14.1904 12.7926 14.2634 12.7196 14.3534 12.7196Z" fill="#8B64FD"/>
<path d="M16.9138 12.8297C16.9426 12.8297 16.9617 12.8536 16.9617 12.8776C16.9617 12.9064 16.9378 12.9255 16.9138 12.9255C16.8898 12.9255 16.8658 12.9016 16.8658 12.8776C16.8611 12.8536 16.885 12.8297 16.9138 12.8297Z" fill="#8B64FD"/>
<path d="M1.5524 9.77556C1.85444 9.77556 2.09895 10.0201 2.09895 10.3221C2.09895 10.6241 1.85444 10.8687 1.5524 10.8687C1.25037 10.8687 1.00586 10.6241 1.00586 10.3221C1.00586 10.0201 1.25037 9.77556 1.5524 9.77556Z" fill="#8B64FD"/>
<path d="M4.11227 9.8335C4.38075 9.8335 4.60128 10.054 4.60128 10.3225C4.60128 10.591 4.38075 10.8115 4.11227 10.8115C3.8438 10.8115 3.62326 10.591 3.62326 10.3225C3.62326 10.054 3.8438 9.8335 4.11227 9.8335Z" fill="#8B64FD"/>
<path d="M6.67198 9.90482C6.90211 9.90482 7.08908 10.0918 7.08908 10.3219C7.08908 10.552 6.90211 10.739 6.67198 10.739C6.44186 10.739 6.25488 10.552 6.25488 10.3219C6.25488 10.0918 6.44186 9.90482 6.67198 9.90482Z" fill="#8B64FD"/>
<path d="M9.23409 9.99618C9.41627 9.99618 9.5601 10.14 9.5601 10.3222C9.5601 10.5044 9.41627 10.6482 9.23409 10.6482C9.05191 10.6482 8.90808 10.5044 8.90808 10.3222C8.90808 10.14 9.05191 9.99618 9.23409 9.99618Z" fill="#8B64FD"/>
<path d="M11.7958 10.0972C11.9204 10.0972 12.0211 10.1979 12.0211 10.3225C12.0211 10.4472 11.9204 10.5479 11.7958 10.5479C11.6711 10.5479 11.5705 10.4472 11.5705 10.3225C11.5657 10.1979 11.6711 10.0972 11.7958 10.0972Z" fill="#8B64FD"/>
<path d="M14.3534 10.2022C14.4205 10.2022 14.4732 10.2549 14.4732 10.322C14.4732 10.3892 14.4205 10.4419 14.3534 10.4419C14.2863 10.4419 14.2335 10.3892 14.2335 10.322C14.2335 10.2549 14.2863 10.2022 14.3534 10.2022Z" fill="#8B64FD"/>
<path d="M16.913 10.2986C16.9226 10.2986 16.9322 10.3082 16.9322 10.3177C16.9322 10.3273 16.9226 10.3369 16.913 10.3369C16.9034 10.3369 16.8938 10.3273 16.8938 10.3177C16.889 10.3082 16.8986 10.2986 16.913 10.2986Z" fill="#8B64FD"/>
<path d="M1.65136 7.3409C1.8838 7.39349 2.02959 7.62455 1.977 7.85699C1.92441 8.08943 1.69334 8.23522 1.46091 8.18263C1.22847 8.13004 1.08267 7.89897 1.13527 7.66654C1.18786 7.4341 1.41892 7.2883 1.65136 7.3409Z" fill="#8B64FD"/>
<path d="M4.11487 7.37348C4.33061 7.37348 4.5032 7.54607 4.5032 7.76181C4.5032 7.97755 4.33061 8.15015 4.11487 8.15015C3.89912 8.15015 3.72653 7.97755 3.72653 7.76181C3.72653 7.54607 3.89912 7.37348 4.11487 7.37348Z" fill="#8B64FD"/>
<path d="M6.67351 7.43612C6.85569 7.43612 6.99952 7.57994 6.99952 7.76212C6.99952 7.94431 6.85569 8.08813 6.67351 8.08813C6.49133 8.08813 6.3475 7.94431 6.3475 7.76212C6.3475 7.57994 6.49133 7.43612 6.67351 7.43612Z" fill="#8B64FD"/>
<path d="M9.2327 7.51312C9.37173 7.51312 9.482 7.62339 9.482 7.76242C9.482 7.90145 9.37173 8.01172 9.2327 8.01172C9.09367 8.01172 8.9834 7.90145 8.9834 7.76242C8.9834 7.62339 9.09367 7.51312 9.2327 7.51312Z" fill="#8B64FD"/>
<path d="M11.7938 7.60399C11.8801 7.60399 11.952 7.6759 11.952 7.7622C11.952 7.84849 11.8801 7.92041 11.7938 7.92041C11.7075 7.92041 11.6356 7.84849 11.6356 7.7622C11.6356 7.6759 11.7075 7.60399 11.7938 7.60399Z" fill="#8B64FD"/>
<path d="M14.3533 7.69981C14.3878 7.69981 14.4157 7.72771 14.4157 7.76214C14.4157 7.79656 14.3878 7.82446 14.3533 7.82446C14.3189 7.82446 14.291 7.79656 14.291 7.76214C14.291 7.72771 14.3189 7.69981 14.3533 7.69981Z" fill="#8B64FD"/>
<path d="M1.55479 4.89067C1.7269 4.89067 1.86641 5.03018 1.86641 5.20229C1.86641 5.3744 1.7269 5.51392 1.55479 5.51392C1.38268 5.51392 1.24316 5.3744 1.24316 5.20229C1.24316 5.03018 1.38268 4.89067 1.55479 4.89067Z" fill="#8B64FD"/>
<path d="M4.11596 4.92458C4.26937 4.92458 4.39402 5.04923 4.39402 5.20265C4.39402 5.35606 4.26937 5.48071 4.11596 5.48071C3.96254 5.48071 3.83789 5.35606 3.83789 5.20265C3.83789 5.04923 3.96254 4.92458 4.11596 4.92458Z" fill="#8B64FD"/>
<path d="M6.67455 4.97634C6.7992 4.97634 6.89988 5.07702 6.89988 5.20167C6.89988 5.32632 6.7992 5.427 6.67455 5.427C6.5499 5.427 6.44922 5.32632 6.44922 5.20167C6.44922 5.07702 6.5499 4.97634 6.67455 4.97634Z" fill="#8B64FD"/>
<path d="M9.23435 5.04857C9.32065 5.04857 9.39256 5.12048 9.39256 5.20678C9.39256 5.29308 9.32065 5.36499 9.23435 5.36499C9.14806 5.36499 9.07614 5.29308 9.07614 5.20678C9.07614 5.11569 9.14806 5.04857 9.23435 5.04857Z" fill="#8B64FD"/>
<path d="M11.7925 5.12564C11.8356 5.12564 11.8692 5.1592 11.8692 5.20235C11.8692 5.24549 11.8356 5.27905 11.7925 5.27905C11.7493 5.27905 11.7158 5.24549 11.7158 5.20235C11.7158 5.1592 11.7493 5.12564 11.7925 5.12564Z" fill="#8B64FD"/>
<path d="M14.3549 5.19775C14.3592 5.19775 14.3592 5.20202 14.3592 5.20202C14.3592 5.2063 14.3549 5.2063 14.3549 5.2063C14.3506 5.2063 14.3506 5.20202 14.3506 5.20202C14.3464 5.19775 14.3506 5.19775 14.3549 5.19775Z" fill="#8B64FD"/>
<path d="M1.55215 2.44996C1.65806 2.44996 1.74392 2.53582 1.74392 2.64173C1.74392 2.74764 1.65806 2.8335 1.55215 2.8335C1.44624 2.8335 1.36038 2.74764 1.36038 2.64173C1.36038 2.53582 1.44624 2.44996 1.55215 2.44996Z" fill="#8B64FD"/>
<path d="M4.11515 2.47917C4.20624 2.47917 4.27816 2.55108 4.27816 2.64217C4.27816 2.73326 4.20624 2.80518 4.11515 2.80518C4.02406 2.80518 3.95215 2.73326 3.95215 2.64217C3.95215 2.55108 4.02406 2.47917 4.11515 2.47917Z" fill="#8B64FD"/>
<path d="M6.67277 2.5225C6.73897 2.5225 6.79263 2.57616 6.79263 2.64235C6.79263 2.70855 6.73897 2.76221 6.67277 2.76221C6.60658 2.76221 6.55292 2.70855 6.55292 2.64235C6.55292 2.57616 6.60658 2.5225 6.67277 2.5225Z" fill="#8B64FD"/>
<path d="M9.23323 2.57921C9.26679 2.57921 9.29555 2.60797 9.29555 2.64153C9.29555 2.67509 9.26679 2.70386 9.23323 2.70386C9.19967 2.70386 9.1709 2.67509 9.1709 2.64153C9.1709 2.60797 9.19967 2.57921 9.23323 2.57921Z" fill="#8B64FD"/>
<path d="M11.7943 2.63793C11.7986 2.63793 11.7986 2.64221 11.7986 2.64221C11.7986 2.64648 11.7943 2.64648 11.7943 2.64648C11.7901 2.64648 11.7901 2.64221 11.7901 2.64221C11.7858 2.63793 11.7901 2.63793 11.7943 2.63793Z" fill="#8B64FD"/>
<path d="M1.55327 0.0045429C1.59642 0.0045429 1.62998 0.0381043 1.62998 0.0812524C1.62998 0.124401 1.59642 0.157959 1.55327 0.157959C1.51012 0.157959 1.47656 0.124401 1.47656 0.0812524C1.47656 0.0381043 1.51012 0.0045429 1.55327 0.0045429Z" fill="#8B64FD"/>
<path d="M4.11435 0.033754C4.14311 0.033754 4.16229 0.0577252 4.16229 0.0816963C4.16229 0.110462 4.13832 0.129639 4.11435 0.129639C4.09038 0.129639 4.06641 0.105667 4.06641 0.0816963C4.06641 0.0577252 4.08558 0.033754 4.11435 0.033754Z" fill="#8B64FD"/>
<path d="M6.6725 0.0624768C6.68209 0.0624768 6.69168 0.0720664 6.69168 0.0816549C6.69168 0.0912434 6.68209 0.10083 6.6725 0.10083C6.66291 0.10083 6.65332 0.0912434 6.65332 0.0816549C6.65332 0.0720664 6.66291 0.0624768 6.6725 0.0624768Z" fill="#8B64FD"/>
</g>
</svg>
