<svg width="17" height="35" viewBox="0 0 17 35" fill="none" xmlns="http://www.w3.org/2000/svg">
<g opacity="0.5">
<path d="M5.19646 33.3549C5.19863 33.3549 5.20039 33.3567 5.20039 33.3589C5.20039 33.361 5.19863 33.3628 5.19646 33.3628C5.19429 33.3628 5.19254 33.361 5.19254 33.3589C5.19254 33.3567 5.19429 33.3549 5.19646 33.3549Z" fill="#8B64FD"/>
<path d="M7.7579 33.3109C7.78438 33.3109 7.80585 33.3323 7.80585 33.3588C7.80585 33.3853 7.78438 33.4067 7.7579 33.4067C7.73143 33.4067 7.70996 33.3853 7.70996 33.3588C7.70996 33.3323 7.73143 33.3109 7.7579 33.3109Z" fill="#8B64FD"/>
<path d="M10.3184 33.2529C10.3759 33.2529 10.4238 33.3009 10.4238 33.3584C10.4238 33.4159 10.3759 33.4639 10.3184 33.4639C10.2608 33.4639 10.2129 33.4159 10.2129 33.3584C10.2129 33.3009 10.2608 33.2529 10.3184 33.2529Z" fill="#8B64FD"/>
<path d="M12.8779 33.2002C12.9642 33.2002 13.0361 33.2721 13.0361 33.3584C13.0361 33.4447 12.9642 33.5166 12.8779 33.5166C12.7916 33.5166 12.7197 33.4447 12.7197 33.3584C12.7197 33.2721 12.7916 33.2002 12.8779 33.2002Z" fill="#8B64FD"/>
<path d="M15.4381 33.1718C15.5388 33.1718 15.6203 33.2533 15.6203 33.354C15.6203 33.4546 15.5388 33.5361 15.4381 33.5361C15.3374 33.5361 15.2559 33.4546 15.2559 33.354C15.2511 33.2581 15.3326 33.1718 15.4381 33.1718Z" fill="#8B64FD"/>
<path d="M2.63589 30.7954C2.63806 30.7954 2.63981 30.7971 2.63981 30.7993C2.63981 30.8015 2.63806 30.8032 2.63589 30.8032C2.63372 30.8032 2.63196 30.8015 2.63196 30.7993C2.63196 30.7971 2.63372 30.7954 2.63589 30.7954Z" fill="#8B64FD"/>
<path d="M5.20921 30.7366C5.24318 30.7421 5.26626 30.7741 5.26074 30.8081C5.25523 30.842 5.22321 30.8651 5.18924 30.8596C5.15526 30.8541 5.13219 30.8221 5.1377 30.7881C5.14321 30.7541 5.17523 30.731 5.20921 30.7366Z" fill="#8B64FD"/>
<path d="M7.76004 30.655C7.83675 30.655 7.90387 30.7173 7.90387 30.7988C7.90387 30.8755 7.84154 30.9426 7.76004 30.9426C7.68333 30.9426 7.61621 30.8803 7.61621 30.7988C7.61621 30.7221 7.68333 30.655 7.76004 30.655Z" fill="#8B64FD"/>
<path d="M10.3185 30.5874C10.4384 30.5874 10.5295 30.6833 10.5295 30.7983C10.5295 30.9182 10.4336 31.0093 10.3185 31.0093C10.1987 31.0093 10.1076 30.9134 10.1076 30.7983C10.1028 30.6785 10.1987 30.5874 10.3185 30.5874Z" fill="#8B64FD"/>
<path d="M12.8781 30.5299C13.0267 30.5299 13.1466 30.6498 13.1466 30.7984C13.1466 30.947 13.0267 31.0669 12.8781 31.0669C12.7295 31.0669 12.6096 30.947 12.6096 30.7984C12.6048 30.6498 12.7295 30.5299 12.8781 30.5299Z" fill="#8B64FD"/>
<path d="M15.4367 30.4913C15.6045 30.4913 15.7435 30.6256 15.7435 30.7981C15.7435 30.9659 15.6045 31.105 15.4367 31.105C15.2689 31.105 15.1299 30.9659 15.1299 30.7981C15.1299 30.6304 15.2641 30.4913 15.4367 30.4913Z" fill="#8B64FD"/>
<path d="M2.63974 28.19C2.66622 28.19 2.68768 28.2115 2.68768 28.2379C2.68768 28.2644 2.66622 28.2859 2.63974 28.2859C2.61326 28.2859 2.5918 28.2644 2.5918 28.2379C2.5918 28.2115 2.61326 28.19 2.63974 28.19Z" fill="#8B64FD"/>
<path d="M5.19949 28.0947C5.2762 28.0947 5.34332 28.157 5.34332 28.2385C5.34332 28.32 5.28099 28.3823 5.19949 28.3823C5.11799 28.3823 5.05566 28.32 5.05566 28.2385C5.05566 28.157 5.12278 28.0947 5.19949 28.0947Z" fill="#8B64FD"/>
<path d="M7.75735 28.0036C7.88709 28.0036 7.99227 28.1087 7.99227 28.2385C7.99227 28.3682 7.88709 28.4734 7.75735 28.4734C7.62761 28.4734 7.52243 28.3682 7.52243 28.2385C7.52243 28.1087 7.62761 28.0036 7.75735 28.0036Z" fill="#8B64FD"/>
<path d="M10.3185 27.9263C10.4911 27.9263 10.6301 28.0653 10.6301 28.2379C10.6301 28.4105 10.4911 28.5496 10.3185 28.5496C10.1459 28.5496 10.0068 28.4105 10.0068 28.2379C10.0068 28.0653 10.1459 27.9263 10.3185 27.9263Z" fill="#8B64FD"/>
<path d="M12.8799 27.8649C13.0861 27.8649 13.2539 28.0327 13.2539 28.2388C13.2539 28.445 13.0861 28.6128 12.8799 28.6128C12.6738 28.6128 12.506 28.445 12.506 28.2388C12.5012 28.0327 12.669 27.8649 12.8799 27.8649Z" fill="#8B64FD"/>
<path d="M15.7315 27.9453C15.8944 28.1082 15.8944 28.3723 15.7315 28.5352C15.5686 28.6981 15.3045 28.6981 15.1416 28.5352C14.9787 28.3723 14.9787 28.1082 15.1416 27.9453C15.3045 27.7824 15.5686 27.7824 15.7315 27.9453Z" fill="#8B64FD"/>
<path d="M0.0750072 25.6657C0.0839964 25.6657 0.088491 25.6702 0.088491 25.6791C0.088491 25.6881 0.0839964 25.6926 0.0750072 25.6926C0.066018 25.6926 0.0615234 25.6881 0.0615234 25.6791C0.0615234 25.6746 0.0705126 25.6657 0.0750072 25.6657Z" fill="#8B64FD"/>
<path d="M2.63858 25.5723C2.69612 25.5723 2.74406 25.6202 2.74406 25.6777C2.74406 25.7353 2.69612 25.7832 2.63858 25.7832C2.58105 25.7832 2.53311 25.7353 2.53311 25.6777C2.53311 25.6202 2.58105 25.5723 2.63858 25.5723Z" fill="#8B64FD"/>
<path d="M5.19727 25.4678C5.31713 25.4678 5.40822 25.5636 5.40822 25.6787C5.40822 25.7986 5.31234 25.8896 5.19727 25.8896C5.07742 25.8896 4.98633 25.7938 4.98633 25.6787C4.98633 25.5636 5.08221 25.4678 5.19727 25.4678Z" fill="#8B64FD"/>
<path d="M7.75791 25.3667C7.93051 25.3667 8.06954 25.5058 8.06954 25.6784C8.06954 25.851 7.93051 25.99 7.75791 25.99C7.58532 25.99 7.44629 25.851 7.44629 25.6784C7.44629 25.5058 7.58532 25.3667 7.75791 25.3667Z" fill="#8B64FD"/>
<path d="M10.3177 25.2759C10.5431 25.2759 10.7204 25.458 10.7204 25.6786C10.7204 25.9039 10.5383 26.0813 10.3177 26.0813C10.0924 26.0813 9.91501 25.8991 9.91501 25.6786C9.91022 25.458 10.0924 25.2759 10.3177 25.2759Z" fill="#8B64FD"/>
<path d="M13.3345 25.5115C13.4277 25.7622 13.3001 26.041 13.0494 26.1342C12.7988 26.2274 12.52 26.0998 12.4268 25.8491C12.3335 25.5985 12.4612 25.3197 12.7118 25.2265C12.9625 25.1332 13.2413 25.2609 13.3345 25.5115Z" fill="#8B64FD"/>
<path d="M15.4364 25.1459C15.7288 25.1459 15.9686 25.3856 15.9686 25.678C15.9686 25.9705 15.7288 26.2102 15.4364 26.2102C15.1439 26.2102 14.9042 25.9705 14.9042 25.678C14.9042 25.3856 15.1392 25.1459 15.4364 25.1459Z" fill="#8B64FD"/>
<path d="M0.0783044 23.0751C0.102276 23.0751 0.121452 23.0943 0.121452 23.1182C0.121452 23.1422 0.102276 23.1614 0.0783044 23.1614C0.0543332 23.1614 0.0351562 23.1422 0.0351562 23.1182C0.0351562 23.0943 0.0543332 23.0751 0.0783044 23.0751Z" fill="#8B64FD"/>
<path d="M2.63859 22.9643C2.72488 22.9643 2.7968 23.0363 2.7968 23.1226C2.7968 23.2088 2.72488 23.2808 2.63859 23.2808C2.55229 23.2808 2.48038 23.2088 2.48038 23.1226C2.48517 23.0315 2.55229 22.9643 2.63859 22.9643Z" fill="#8B64FD"/>
<path d="M5.19737 22.8498C5.34599 22.8498 5.46585 22.9696 5.46585 23.1182C5.46585 23.2669 5.34599 23.3867 5.19737 23.3867C5.04875 23.3867 4.92889 23.2669 4.92889 23.1182C4.92889 22.9696 5.04875 22.8498 5.19737 22.8498Z" fill="#8B64FD"/>
<path d="M7.75585 22.744C7.96201 22.744 8.1298 22.9118 8.1298 23.118C8.1298 23.3241 7.96201 23.4919 7.75585 23.4919C7.5497 23.4919 7.3819 23.3241 7.3819 23.118C7.37711 22.9118 7.5497 22.744 7.75585 22.744Z" fill="#8B64FD"/>
<path d="M10.3189 22.639C10.5874 22.639 10.8032 22.8547 10.8032 23.1232C10.8032 23.3917 10.5874 23.6074 10.3189 23.6074C10.0505 23.6074 9.83472 23.3917 9.83472 23.1232C9.83472 22.8547 10.0505 22.639 10.3189 22.639Z" fill="#8B64FD"/>
<path d="M12.878 22.543C13.1945 22.543 13.4534 22.8019 13.4534 23.1183C13.4534 23.4347 13.1945 23.6936 12.878 23.6936C12.5616 23.6936 12.3027 23.4347 12.3027 23.1183C12.3027 22.8019 12.5568 22.543 12.878 22.543Z" fill="#8B64FD"/>
<path d="M15.4383 22.4751C15.7931 22.4751 16.0855 22.7627 16.0855 23.1223C16.0855 23.4771 15.7979 23.7695 15.4383 23.7695C15.0835 23.7695 14.7911 23.4819 14.7911 23.1223C14.7911 22.7627 15.0787 22.4751 15.4383 22.4751Z" fill="#8B64FD"/>
<path d="M0.0769735 20.496C0.111395 20.496 0.139299 20.5239 0.139299 20.5583C0.139299 20.5927 0.111395 20.6206 0.0769735 20.6206C0.0425523 20.6206 0.0146484 20.5927 0.0146484 20.5583C0.0146484 20.5239 0.0425523 20.496 0.0769735 20.496Z" fill="#8B64FD"/>
<path d="M2.63839 20.3759C2.739 20.3759 2.82057 20.4574 2.82057 20.5581C2.82057 20.6587 2.739 20.7402 2.63839 20.7402C2.53777 20.7402 2.45621 20.6587 2.45621 20.5581C2.45621 20.4574 2.53777 20.3759 2.63839 20.3759Z" fill="#8B64FD"/>
<path d="M5.19727 20.2562C5.36507 20.2562 5.5041 20.3952 5.5041 20.563C5.5041 20.7308 5.36507 20.8699 5.19727 20.8699C5.02947 20.8699 4.89044 20.7308 4.89044 20.563C4.89044 20.3952 5.02947 20.2562 5.19727 20.2562Z" fill="#8B64FD"/>
<path d="M7.75716 20.1407C7.98751 20.1407 8.17425 20.3274 8.17425 20.5578C8.17425 20.7881 7.98751 20.9749 7.75716 20.9749C7.5268 20.9749 7.34006 20.7881 7.34006 20.5578C7.34006 20.3274 7.5268 20.1407 7.75716 20.1407Z" fill="#8B64FD"/>
<path d="M10.3163 20.026C10.6088 20.026 10.8485 20.2657 10.8485 20.5582C10.8485 20.8506 10.6088 21.0903 10.3163 21.0903C10.0239 21.0903 9.78418 20.8506 9.78418 20.5582C9.78418 20.2657 10.0191 20.026 10.3163 20.026Z" fill="#8B64FD"/>
<path d="M12.8778 19.9153C13.2325 19.9153 13.525 20.2029 13.525 20.5625C13.525 20.9173 13.2373 21.2097 12.8778 21.2097C12.523 21.2097 12.2305 20.9221 12.2305 20.5625C12.2305 20.2029 12.5182 19.9153 12.8778 19.9153Z" fill="#8B64FD"/>
<path d="M16.1282 20.2767C16.2853 20.6559 16.1052 21.0906 15.726 21.2477C15.3469 21.4047 14.9122 21.2247 14.7551 20.8455C14.598 20.4663 14.7781 20.0316 15.1573 19.8745C15.5364 19.7175 15.9711 19.8975 16.1282 20.2767Z" fill="#8B64FD"/>
<path d="M0.0767078 17.9213C0.119856 17.9213 0.153416 17.9549 0.153416 17.998C0.153416 18.0411 0.119856 18.0747 0.0767078 18.0747C0.0335596 18.0747 0 18.0411 0 17.998C0 17.9596 0.0335596 17.9213 0.0767078 17.9213Z" fill="#8B64FD"/>
<path d="M2.63809 17.8106C2.744 17.8106 2.82986 17.8964 2.82986 18.0023C2.82986 18.1082 2.744 18.1941 2.63809 18.1941C2.53218 18.1941 2.44632 18.1082 2.44632 18.0023C2.44632 17.8964 2.53218 17.8106 2.63809 17.8106Z" fill="#8B64FD"/>
<path d="M5.19737 17.682C5.37476 17.682 5.51859 17.8259 5.51859 18.0033C5.51859 18.1806 5.37476 18.3245 5.19737 18.3245C5.01999 18.3245 4.87616 18.1806 4.87616 18.0033C4.87616 17.8259 5.01999 17.682 5.19737 17.682Z" fill="#8B64FD"/>
<path d="M7.75845 17.5615C8.00296 17.5615 8.19952 17.758 8.19952 18.0025C8.19952 18.247 8.00296 18.4436 7.75845 18.4436C7.51395 18.4436 7.31738 18.247 7.31738 18.0025C7.31738 17.758 7.51395 17.5615 7.75845 17.5615Z" fill="#8B64FD"/>
<path d="M10.4598 17.4701C10.754 17.5484 10.9292 17.8504 10.8509 18.1446C10.7726 18.4389 10.4707 18.614 10.1764 18.5357C9.88213 18.4575 9.70702 18.1555 9.78528 17.8612C9.86353 17.567 10.1655 17.3919 10.4598 17.4701Z" fill="#8B64FD"/>
<path d="M13.0332 17.3464C13.3965 17.4322 13.6215 17.7963 13.5357 18.1597C13.4499 18.523 13.0858 18.748 12.7225 18.6622C12.3592 18.5764 12.1342 18.2123 12.22 17.849C12.3058 17.4856 12.6699 17.2606 13.0332 17.3464Z" fill="#8B64FD"/>
<path d="M16.1726 17.6987C16.3408 18.1047 16.148 18.5703 15.7419 18.7385C15.3358 18.9067 14.8702 18.7139 14.702 18.3078C14.5338 17.9017 14.7267 17.4361 15.1327 17.2679C15.5388 17.0997 16.0044 17.2926 16.1726 17.6987Z" fill="#8B64FD"/>
<path d="M0.0758198 15.3701C0.114174 15.3701 0.147733 15.4036 0.147733 15.442C0.147733 15.4804 0.114174 15.5139 0.0758198 15.5139C0.0374659 15.5139 0.00390625 15.4804 0.00390625 15.442C0.00390625 15.4036 0.0374659 15.3701 0.0758198 15.3701Z" fill="#8B64FD"/>
<path d="M2.63839 15.2609C2.739 15.2609 2.82057 15.3424 2.82057 15.4431C2.82057 15.5437 2.739 15.6252 2.63839 15.6252C2.53777 15.6252 2.45621 15.5437 2.45621 15.4431C2.45621 15.3424 2.53777 15.2609 2.63839 15.2609Z" fill="#8B64FD"/>
<path d="M5.19727 15.1356C5.36507 15.1356 5.5041 15.2746 5.5041 15.4424C5.5041 15.6102 5.36507 15.7493 5.19727 15.7493C5.02947 15.7493 4.89044 15.615 4.89044 15.4424C4.89044 15.2746 5.02947 15.1356 5.19727 15.1356Z" fill="#8B64FD"/>
<path d="M7.75872 15.016C7.99437 15.016 8.18541 15.207 8.18541 15.4427C8.18541 15.6783 7.99437 15.8694 7.75872 15.8694C7.52307 15.8694 7.33203 15.6783 7.33203 15.4427C7.33203 15.207 7.52307 15.016 7.75872 15.016Z" fill="#8B64FD"/>
<path d="M10.3191 14.9004C10.6163 14.9004 10.8608 15.1401 10.8608 15.4421C10.8608 15.7394 10.6211 15.9839 10.3191 15.9839C10.0218 15.9839 9.77734 15.7442 9.77734 15.4421C9.77734 15.1449 10.0218 14.9004 10.3191 14.9004Z" fill="#8B64FD"/>
<path d="M12.8786 14.7861C13.2382 14.7861 13.5307 15.0785 13.5307 15.4381C13.5307 15.7976 13.2382 16.0901 12.8786 16.0901C12.5191 16.0901 12.2266 15.7976 12.2266 15.4381C12.2218 15.0785 12.5143 14.7861 12.8786 14.7861Z" fill="#8B64FD"/>
<path d="M15.4394 14.6897C15.8565 14.6897 16.1921 15.0253 16.1921 15.4424C16.1921 15.8595 15.8565 16.1951 15.4394 16.1951C15.0223 16.1951 14.6867 15.8595 14.6867 15.4424C14.6867 15.0253 15.0223 14.6897 15.4394 14.6897Z" fill="#8B64FD"/>
<path d="M0.0782158 12.8297C0.106981 12.8297 0.126158 12.8536 0.126158 12.8776C0.126158 12.9064 0.102187 12.9255 0.0782158 12.9255C0.0494504 12.9255 0.0302734 12.9016 0.0302734 12.8776C0.0302734 12.8536 0.0542446 12.8297 0.0782158 12.8297Z" fill="#8B64FD"/>
<path d="M2.63859 12.7246C2.72488 12.7246 2.7968 12.7965 2.7968 12.8828C2.7968 12.9691 2.72488 13.041 2.63859 13.041C2.55229 13.041 2.48038 12.9691 2.48038 12.8828C2.48517 12.7965 2.55229 12.7246 2.63859 12.7246Z" fill="#8B64FD"/>
<path d="M5.19737 12.6142C5.34599 12.6142 5.46585 12.734 5.46585 12.8826C5.46585 13.0313 5.34599 13.1511 5.19737 13.1511C5.04875 13.1511 4.92889 13.0313 4.92889 12.8826C4.92889 12.734 5.04875 12.6142 5.19737 12.6142Z" fill="#8B64FD"/>
<path d="M7.83295 12.505C8.04062 12.5468 8.17511 12.749 8.13334 12.9566C8.09157 13.1643 7.88936 13.2988 7.68169 13.257C7.47401 13.2153 7.33953 13.013 7.3813 12.8054C7.42307 12.5977 7.62528 12.4632 7.83295 12.505Z" fill="#8B64FD"/>
<path d="M10.3189 12.3983C10.5874 12.3983 10.8032 12.614 10.8032 12.8825C10.8032 13.151 10.5874 13.3667 10.3189 13.3667C10.0505 13.3667 9.83472 13.151 9.83472 12.8825C9.83472 12.614 10.0505 12.3983 10.3189 12.3983Z" fill="#8B64FD"/>
<path d="M12.8788 12.2973C13.2 12.2973 13.4589 12.5562 13.4589 12.8774C13.4589 13.1986 13.2 13.4575 12.8788 13.4575C12.5576 13.4575 12.2987 13.1986 12.2987 12.8774C12.2939 12.561 12.5576 12.2973 12.8788 12.2973Z" fill="#8B64FD"/>
<path d="M15.4392 12.2309C15.7988 12.2309 16.0912 12.5233 16.0912 12.8829C16.0912 13.2425 15.7988 13.5349 15.4392 13.5349C15.0796 13.5349 14.7872 13.2425 14.7872 12.8829C14.7824 12.5233 15.0748 12.2309 15.4392 12.2309Z" fill="#8B64FD"/>
<path d="M0.0750072 10.3099C0.0839964 10.3099 0.088491 10.3144 0.088491 10.3234C0.088491 10.3324 0.0839964 10.3369 0.0750072 10.3369C0.066018 10.3369 0.0615234 10.3324 0.0615234 10.3234C0.0615234 10.3144 0.0705126 10.3099 0.0750072 10.3099Z" fill="#8B64FD"/>
<path d="M2.63752 10.2069C2.69985 10.2069 2.75258 10.2596 2.75258 10.3219C2.75258 10.3843 2.69985 10.437 2.63752 10.437C2.5752 10.437 2.52246 10.3843 2.52246 10.3219C2.52246 10.2596 2.5752 10.2069 2.63752 10.2069Z" fill="#8B64FD"/>
<path d="M5.19997 10.1019C5.31982 10.1019 5.4205 10.2026 5.4205 10.3224C5.4205 10.4423 5.31982 10.543 5.19997 10.543C5.08011 10.543 4.97943 10.4423 4.97943 10.3224C4.97943 10.2026 5.08011 10.1019 5.19997 10.1019Z" fill="#8B64FD"/>
<path d="M7.75685 10.0011C7.93424 10.0011 8.07807 10.145 8.07807 10.3223C8.07807 10.4997 7.93424 10.6436 7.75685 10.6436C7.57947 10.6436 7.43564 10.4997 7.43564 10.3223C7.43564 10.145 7.57947 10.0011 7.75685 10.0011Z" fill="#8B64FD"/>
<path d="M10.3195 9.90977C10.5449 9.90977 10.7318 10.0919 10.7318 10.3221C10.7318 10.5474 10.5497 10.7344 10.3195 10.7344C10.0942 10.7344 9.90723 10.5522 9.90723 10.3221C9.90723 10.0967 10.0894 9.90977 10.3195 9.90977Z" fill="#8B64FD"/>
<path d="M12.8806 9.8335C13.1491 9.8335 13.3696 10.054 13.3696 10.3225C13.3696 10.591 13.1491 10.8115 12.8806 10.8115C12.6121 10.8115 12.3916 10.591 12.3916 10.3225C12.3916 10.054 12.6073 9.8335 12.8806 9.8335Z" fill="#8B64FD"/>
<path d="M15.4394 9.78076C15.7366 9.78076 15.9811 10.0205 15.9811 10.3225C15.9811 10.6198 15.7414 10.8643 15.4394 10.8643C15.1421 10.8643 14.8976 10.6245 14.8976 10.3225C14.8976 10.0253 15.1374 9.78076 15.4394 9.78076Z" fill="#8B64FD"/>
<path d="M2.63569 7.70476C2.66746 7.70476 2.69322 7.73052 2.69322 7.76229C2.69322 7.79407 2.66746 7.81982 2.63569 7.81982C2.60391 7.81982 2.57816 7.79407 2.57816 7.76229C2.57816 7.73052 2.60391 7.70476 2.63569 7.70476Z" fill="#8B64FD"/>
<path d="M5.20056 7.61316C5.28206 7.61316 5.34918 7.68028 5.34918 7.76178C5.34918 7.84328 5.28206 7.9104 5.20056 7.9104C5.11906 7.9104 5.05194 7.84328 5.05194 7.76178C5.05194 7.68028 5.11906 7.61316 5.20056 7.61316Z" fill="#8B64FD"/>
<path d="M7.76022 7.52302C7.89446 7.52302 7.99993 7.63329 7.99993 7.76273C7.99993 7.89697 7.88966 8.00244 7.76022 8.00244C7.62598 8.00244 7.52051 7.89217 7.52051 7.76273C7.52051 7.62849 7.62598 7.52302 7.76022 7.52302Z" fill="#8B64FD"/>
<path d="M10.3163 7.44107C10.4937 7.44107 10.6375 7.5849 10.6375 7.76228C10.6375 7.93967 10.4937 8.0835 10.3163 8.0835C10.1389 8.0835 9.99512 7.93967 9.99512 7.76228C9.99512 7.5849 10.1389 7.44107 10.3163 7.44107Z" fill="#8B64FD"/>
<path d="M13.1474 7.49247C13.2972 7.64225 13.2972 7.88509 13.1474 8.03487C12.9976 8.18465 12.7548 8.18465 12.605 8.03487C12.4552 7.88509 12.4552 7.64225 12.605 7.49247C12.7548 7.34269 12.9976 7.34269 13.1474 7.49247Z" fill="#8B64FD"/>
<path d="M15.5362 7.34909C15.7655 7.40325 15.9075 7.63306 15.8534 7.8624C15.7992 8.09173 15.5694 8.23375 15.3401 8.1796C15.1107 8.12544 14.9687 7.89563 15.0229 7.66629C15.077 7.43695 15.3068 7.29494 15.5362 7.34909Z" fill="#8B64FD"/>
<path d="M2.63589 5.19844C2.63981 5.19844 2.63981 5.20237 2.63981 5.20237C2.63981 5.2063 2.63589 5.2063 2.63589 5.2063C2.63196 5.2063 2.63196 5.20237 2.63196 5.20237C2.63196 5.19844 2.63196 5.19844 2.63589 5.19844Z" fill="#8B64FD"/>
<path d="M5.19594 5.13034C5.23429 5.13034 5.26785 5.1639 5.26785 5.20226C5.26785 5.24061 5.23429 5.27417 5.19594 5.27417C5.15758 5.27417 5.12402 5.24061 5.12402 5.20226C5.12402 5.1639 5.15758 5.13034 5.19594 5.13034Z" fill="#8B64FD"/>
<path d="M7.76001 5.05334C7.84151 5.05334 7.90863 5.12046 7.90863 5.20197C7.90863 5.28347 7.84151 5.35059 7.76001 5.35059C7.67851 5.35059 7.61139 5.28347 7.61139 5.20197C7.61139 5.12046 7.67851 5.05334 7.76001 5.05334Z" fill="#8B64FD"/>
<path d="M10.3192 4.98129C10.439 4.98129 10.5397 5.08197 10.5397 5.20183C10.5397 5.32169 10.439 5.42236 10.3192 5.42236C10.1993 5.42236 10.0986 5.32169 10.0986 5.20183C10.0986 5.08197 10.1945 4.98129 10.3192 4.98129Z" fill="#8B64FD"/>
<path d="M12.8788 4.92458C13.0322 4.92458 13.1568 5.04923 13.1568 5.20265C13.1568 5.35606 13.0322 5.48071 12.8788 5.48071C12.7254 5.48071 12.6007 5.35606 12.6007 5.20265C12.6007 5.04923 12.7254 4.92458 12.8788 4.92458Z" fill="#8B64FD"/>
<path d="M15.4387 4.89067C15.6113 4.89067 15.7503 5.0297 15.7503 5.20229C15.7503 5.37488 15.6113 5.51392 15.4387 5.51392C15.2661 5.51392 15.1271 5.37488 15.1271 5.20229C15.1223 5.0297 15.2661 4.89067 15.4387 4.89067Z" fill="#8B64FD"/>
<path d="M5.19646 2.63863C5.19863 2.63863 5.20039 2.64039 5.20039 2.64256C5.20039 2.64472 5.19863 2.64648 5.19646 2.64648C5.19429 2.64648 5.19254 2.64472 5.19254 2.64256C5.19254 2.64039 5.19429 2.63863 5.19646 2.63863Z" fill="#8B64FD"/>
<path d="M7.75571 2.58416C7.78749 2.58416 7.81324 2.60991 7.81324 2.64169C7.81324 2.67346 7.78749 2.69922 7.75571 2.69922C7.72394 2.69922 7.69818 2.67346 7.69818 2.64169C7.69818 2.60991 7.72394 2.58416 7.75571 2.58416Z" fill="#8B64FD"/>
<path d="M10.3162 2.53208C10.3786 2.53208 10.4313 2.58482 10.4313 2.64715C10.4313 2.70947 10.3786 2.76221 10.3162 2.76221C10.2539 2.76221 10.2012 2.70947 10.2012 2.64715C10.2012 2.58003 10.2539 2.53208 10.3162 2.53208Z" fill="#8B64FD"/>
<path d="M12.879 2.47917C12.9701 2.47917 13.042 2.55108 13.042 2.64217C13.042 2.73326 12.9701 2.80518 12.879 2.80518C12.7879 2.80518 12.716 2.73326 12.716 2.64217C12.716 2.55108 12.7879 2.47917 12.879 2.47917Z" fill="#8B64FD"/>
<path d="M15.4376 2.44996C15.5431 2.44996 15.6294 2.53625 15.6294 2.64173C15.6294 2.7472 15.5431 2.8335 15.4376 2.8335C15.3321 2.8335 15.2458 2.7472 15.2458 2.64173C15.2458 2.53625 15.3274 2.44996 15.4376 2.44996Z" fill="#8B64FD"/>
<path d="M10.3173 0.0624768C10.3269 0.0624768 10.3365 0.0720664 10.3365 0.0816549C10.3365 0.0912434 10.3269 0.10083 10.3173 0.10083C10.3077 0.10083 10.2981 0.0912434 10.2981 0.0816549C10.2933 0.0720664 10.3029 0.0624768 10.3173 0.0624768Z" fill="#8B64FD"/>
<path d="M12.8788 0.033754C12.9076 0.033754 12.9268 0.0577252 12.9268 0.0816963C12.9268 0.110462 12.9028 0.129639 12.8788 0.129639C12.8501 0.129639 12.8309 0.105667 12.8309 0.0816963C12.8261 0.0577252 12.8501 0.033754 12.8788 0.033754Z" fill="#8B64FD"/>
<path d="M15.4365 0.0045429C15.4796 0.0045429 15.5132 0.0381043 15.5132 0.0812524C15.5132 0.124401 15.4796 0.157959 15.4365 0.157959C15.3933 0.157959 15.3598 0.124401 15.3598 0.0812524C15.355 0.0381043 15.3933 0.0045429 15.4365 0.0045429Z" fill="#8B64FD"/>
</g>
</svg>
