<svg width="22" height="22" viewBox="0 0 22 22" fill="none" xmlns="http://www.w3.org/2000/svg">
<path d="M15.8947 5.00467C15.6771 5.00467 15.4644 5.06919 15.2835 5.19006C15.1027 5.31093 14.9617 5.48272 14.8784 5.68372C14.7952 5.88472 14.7734 6.10589 14.8158 6.31927C14.8583 6.53265 14.963 6.72865 15.1169 6.88249C15.2707 7.03633 15.4667 7.14109 15.6801 7.18354C15.8935 7.22598 16.1146 7.2042 16.3156 7.12094C16.5166 7.03769 16.6884 6.8967 16.8093 6.7158C16.9302 6.53491 16.9947 6.32223 16.9947 6.10467C16.9947 5.81294 16.8788 5.53315 16.6725 5.32686C16.4662 5.12057 16.1864 5.00467 15.8947 5.00467ZM20.1113 7.22301C20.0935 6.46245 19.9511 5.70996 19.6897 4.99551C19.4566 4.38421 19.0938 3.83068 18.6263 3.37301C18.1724 2.90315 17.6176 2.54267 17.0038 2.31884C16.2913 2.04949 15.538 1.90378 14.7763 1.88801C13.8047 1.83301 13.493 1.83301 10.9997 1.83301C8.50634 1.83301 8.19467 1.83301 7.22301 1.88801C6.4614 1.90378 5.70807 2.04949 4.99551 2.31884C4.38288 2.54494 3.82853 2.9051 3.37301 3.37301C2.90315 3.82692 2.54267 4.38174 2.31884 4.99551C2.04949 5.70807 1.90378 6.4614 1.88801 7.22301C1.83301 8.19467 1.83301 8.50634 1.83301 10.9997C1.83301 13.493 1.83301 13.8047 1.88801 14.7763C1.90378 15.538 2.04949 16.2913 2.31884 17.0038C2.54267 17.6176 2.90315 18.1724 3.37301 18.6263C3.82853 19.0942 4.38288 19.4544 4.99551 19.6805C5.70807 19.9499 6.4614 20.0956 7.22301 20.1113C8.19467 20.1663 8.50634 20.1663 10.9997 20.1663C13.493 20.1663 13.8047 20.1663 14.7763 20.1113C15.538 20.0956 16.2913 19.9499 17.0038 19.6805C17.6176 19.4567 18.1724 19.0962 18.6263 18.6263C19.0959 18.1704 19.459 17.6164 19.6897 17.0038C19.9511 16.2894 20.0935 15.5369 20.1113 14.7763C20.1113 13.8047 20.1663 13.493 20.1663 10.9997C20.1663 8.50634 20.1663 8.19467 20.1113 7.22301ZM18.4613 14.6663C18.4547 15.2482 18.3493 15.8247 18.1497 16.3713C18.0033 16.7703 17.7682 17.1307 17.4622 17.4255C17.1649 17.7285 16.8051 17.9631 16.408 18.113C15.8614 18.3126 15.2849 18.418 14.703 18.4247C13.7863 18.4705 13.4472 18.4797 11.0363 18.4797C8.62551 18.4797 8.28634 18.4797 7.36967 18.4247C6.76549 18.436 6.16389 18.343 5.59134 18.1497C5.21164 17.9921 4.86842 17.7581 4.58301 17.4622C4.27876 17.1677 4.04661 16.8069 3.90467 16.408C3.68088 15.8536 3.55675 15.264 3.53801 14.6663C3.53801 13.7497 3.48301 13.4105 3.48301 10.9997C3.48301 8.58884 3.48301 8.24967 3.53801 7.33301C3.54212 6.73814 3.65071 6.14862 3.85884 5.59134C4.02022 5.20443 4.26792 4.85953 4.58301 4.58301C4.8615 4.26783 5.20569 4.01751 5.59134 3.84967C6.1501 3.64805 6.73901 3.54266 7.33301 3.53801C8.24967 3.53801 8.58884 3.48301 10.9997 3.48301C13.4105 3.48301 13.7497 3.48301 14.6663 3.53801C15.2482 3.54468 15.8247 3.65007 16.3713 3.84967C16.7879 4.00427 17.1618 4.25562 17.4622 4.58301C17.7626 4.86459 17.9973 5.20885 18.1497 5.59134C18.3534 6.14953 18.4589 6.73881 18.4613 7.33301C18.5072 8.24967 18.5163 8.58884 18.5163 10.9997C18.5163 13.4105 18.5072 13.7497 18.4613 14.6663ZM10.9997 6.29717C10.07 6.29899 9.16172 6.57632 8.38961 7.09414C7.61749 7.61196 7.01619 8.34702 6.66167 9.20645C6.30716 10.0659 6.21534 11.0111 6.39782 11.9227C6.5803 12.8343 7.02889 13.6713 7.68691 14.3281C8.34493 14.9848 9.18285 15.4318 10.0948 15.6125C11.0067 15.7932 11.9518 15.6995 12.8105 15.3433C13.6693 14.9871 14.4031 14.3844 14.9195 13.6113C15.4358 12.8382 15.7113 11.9294 15.7113 10.9997C15.7126 10.381 15.5914 9.76823 15.355 9.19655C15.1185 8.62487 14.7714 8.10558 14.3335 7.66855C13.8956 7.23153 13.3756 6.88538 12.8035 6.65003C12.2313 6.41467 11.6183 6.29476 10.9997 6.29717ZM10.9997 14.0522C10.3959 14.0522 9.80578 13.8731 9.3038 13.5377C8.80182 13.2023 8.41057 12.7256 8.17953 12.1678C7.9485 11.61 7.88805 10.9963 8.00583 10.4042C8.12361 9.81203 8.41433 9.26813 8.84123 8.84123C9.26813 8.41433 9.81203 8.12361 10.4042 8.00583C10.9963 7.88805 11.61 7.9485 12.1678 8.17953C12.7256 8.41057 13.2023 8.80182 13.5377 9.3038C13.8731 9.80578 14.0522 10.3959 14.0522 10.9997C14.0522 11.4005 13.9732 11.7975 13.8198 12.1678C13.6664 12.5382 13.4416 12.8747 13.1581 13.1581C12.8747 13.4416 12.5382 13.6664 12.1678 13.8198C11.7975 13.9732 11.4005 14.0522 10.9997 14.0522Z" fill="#BB9BFF"/>
</svg>
