<svg width="24" height="25" viewBox="0 0 24 25" fill="none" xmlns="http://www.w3.org/2000/svg">
<path opacity="0.32" d="M12 2.0415C6.06294 2.0415 1.25 6.85444 1.25 12.7915C1.25 18.7286 6.06294 23.5415 12 23.5415C17.9371 23.5415 22.75 18.7286 22.75 12.7915C22.75 6.85444 17.9371 2.0415 12 2.0415Z" fill="#4D2F8C"/>
<path fill-rule="evenodd" clip-rule="evenodd" d="M17.0303 9.76117C17.3232 10.0541 17.3232 10.5289 17.0303 10.8218L11.5303 16.3218C11.3897 16.4625 11.1989 16.5415 11 16.5415C10.8011 16.5415 10.6103 16.4625 10.4697 16.3218L7.96967 13.8218C7.67678 13.5289 7.67678 13.0541 7.96967 12.7612C8.26256 12.4683 8.73744 12.4683 9.03033 12.7612L11 14.7308L15.9697 9.76117C16.2626 9.46828 16.7374 9.46828 17.0303 9.76117Z" fill="#4D2F8C"/>
</svg>
