<svg width="40" height="40" viewBox="0 0 40 40" fill="none" xmlns="http://www.w3.org/2000/svg">
<path d="M36.25 10H3.75C3.08696 10 2.45107 9.73661 1.98223 9.26777C1.51339 8.79893 1.25 8.16304 1.25 7.5C1.25 6.83696 1.51339 6.20107 1.98223 5.73223C2.45107 5.26339 3.08696 5 3.75 5H36.25C36.913 5 37.5489 5.26339 38.0178 5.73223C38.4866 6.20107 38.75 6.83696 38.75 7.5C38.75 8.16304 38.4866 8.79893 38.0178 9.26777C37.5489 9.73661 36.913 10 36.25 10ZM36.25 35H3.75C3.08696 35 2.45107 34.7366 1.98223 34.2678C1.51339 33.7989 1.25 33.163 1.25 32.5C1.25 31.837 1.51339 31.2011 1.98223 30.7322C2.45107 30.2634 3.08696 30 3.75 30H36.25C36.913 30 37.5489 30.2634 38.0178 30.7322C38.4866 31.2011 38.75 31.837 38.75 32.5C38.75 33.163 38.4866 33.7989 38.0178 34.2678C37.5489 34.7366 36.913 35 36.25 35ZM36.25 22.5H3.75C3.08696 22.5 2.45107 22.2366 1.98223 21.7678C1.51339 21.2989 1.25 20.663 1.25 20C1.25 19.337 1.51339 18.7011 1.98223 18.2322C2.45107 17.7634 3.08696 17.5 3.75 17.5H36.25C36.913 17.5 37.5489 17.7634 38.0178 18.2322C38.4866 18.7011 38.75 19.337 38.75 20C38.75 20.663 38.4866 21.2989 38.0178 21.7678C37.5489 22.2366 36.913 22.5 36.25 22.5Z" fill="white"/>
</svg>
