<svg width="48" height="48" viewBox="0 0 48 48" fill="none" xmlns="http://www.w3.org/2000/svg">
<path d="M30.4899 35.6619H17.5099V12.3359H30.4899V35.6619Z" fill="#FF5F00"/>
<path d="M18.334 23.9997C18.332 21.7534 18.8412 19.5361 19.8228 17.5156C20.8044 15.4952 22.2329 13.7245 24 12.3377C21.8117 10.618 19.1837 9.54854 16.4164 9.25164C13.6491 8.95475 10.8541 9.44236 8.35078 10.6588C5.84747 11.8752 3.73687 13.7713 2.26017 16.1304C0.783464 18.4895 0.000239342 21.2165 0 23.9997C0.00053409 26.7826 0.783851 29.5091 2.26045 31.8679C3.73706 34.2267 5.84739 36.1226 8.35034 37.3389C10.8533 38.5552 13.6479 39.043 16.4149 38.7464C19.1819 38.4498 21.8097 37.3809 23.998 35.6617C22.2315 34.2745 20.8036 32.5037 19.8223 30.4833C18.841 28.4629 18.3321 26.2458 18.334 23.9997Z" fill="#EB001B"/>
<path d="M48 23.9997C47.9998 26.7829 47.2165 29.5099 45.7398 31.869C44.2631 34.2282 42.1525 36.1243 39.6492 37.3407C37.1459 38.5571 34.3509 39.0447 31.5836 38.7478C28.8163 38.4509 26.1883 37.3815 24 35.6617C27.45 32.9457 29.666 28.7317 29.666 23.9997C29.666 19.2677 27.45 15.0537 24 12.3377C26.1883 10.618 28.8163 9.54854 31.5836 9.25164C34.3509 8.95475 37.1459 9.44236 39.6492 10.6588C42.1525 11.8752 44.2631 13.7713 45.7398 16.1304C47.2165 18.4895 47.9998 21.2165 48 23.9997Z" fill="#F79E1B"/>
</svg>
