<svg width="48" height="48" viewBox="0 0 48 48" fill="none" xmlns="http://www.w3.org/2000/svg">
<g clip-path="url(#clip0_2_2460)">
<path d="M37.1047 21.0664H34.5142C34.3618 21.0664 34.2094 21.2188 34.1332 21.3712L33.0666 28.0759C33.0666 28.2283 33.1427 28.3045 33.2951 28.3045H34.6666C34.8189 28.3045 34.8951 28.2283 34.8951 28.0759L35.1999 26.1712C35.1999 26.0188 35.3523 25.8664 35.5808 25.8664H36.4189C38.1713 25.8664 39.1618 25.0283 39.3904 23.3521C39.5427 22.6664 39.3904 22.0569 39.0856 21.6759C38.6285 21.295 37.9427 21.0664 37.1047 21.0664ZM37.4094 23.5807C37.257 24.495 36.5713 24.495 35.8856 24.495H35.4285L35.7332 22.7426C35.7332 22.6664 35.8094 22.5902 35.9618 22.5902H36.1142C36.5713 22.5902 37.0285 22.5902 37.257 22.895C37.4094 22.9712 37.4094 23.1997 37.4094 23.5807Z" fill="#139AD6"/>
<path d="M18.4383 21.0664H15.8479C15.6955 21.0664 15.5431 21.2188 15.4669 21.3712L14.4002 28.0759C14.4002 28.2283 14.4764 28.3045 14.6288 28.3045H15.8479C16.0002 28.3045 16.1526 28.1521 16.2288 27.9997L16.5336 26.1712C16.5336 26.0188 16.686 25.8664 16.9145 25.8664H17.7526C19.505 25.8664 20.4955 25.0283 20.724 23.3521C20.8764 22.6664 20.724 22.0569 20.4193 21.6759C19.9621 21.295 19.3526 21.0664 18.4383 21.0664ZM18.7431 23.5807C18.5907 24.495 17.905 24.495 17.2193 24.495H16.8383L17.1431 22.7426C17.1431 22.6664 17.2193 22.5902 17.3717 22.5902H17.524C17.9812 22.5902 18.4383 22.5902 18.6669 22.895C18.7431 22.9712 18.8193 23.1997 18.7431 23.5807Z" fill="white"/>
<path d="M26.2853 23.5049H25.0663C24.9901 23.5049 24.8377 23.5811 24.8377 23.6573L24.7615 24.0383L24.6853 23.8859C24.3806 23.5049 23.8472 23.3525 23.2377 23.3525C21.8663 23.3525 20.6472 24.4192 20.4187 25.8668C20.2663 26.6287 20.4949 27.3144 20.8758 27.7716C21.2568 28.2287 21.7901 28.3811 22.4758 28.3811C23.6187 28.3811 24.2282 27.6954 24.2282 27.6954L24.152 28.0763C24.152 28.2287 24.2282 28.3049 24.3806 28.3049H25.5234C25.6758 28.3049 25.8282 28.1525 25.9044 28.0002L26.5901 23.7335C26.5139 23.6573 26.3615 23.5049 26.2853 23.5049ZM24.533 25.943C24.3806 26.6287 23.8472 27.1621 23.0853 27.1621C22.7044 27.1621 22.3996 27.0097 22.2472 26.8573C22.0949 26.6287 22.0187 26.324 22.0187 25.943C22.0949 25.2573 22.7044 24.724 23.3901 24.724C23.7711 24.724 23.9996 24.8763 24.2282 25.0287C24.4568 25.2573 24.533 25.6383 24.533 25.943Z" fill="white"/>
<path d="M44.8763 23.5049H43.6573C43.5811 23.5049 43.4287 23.5811 43.4287 23.6573L43.3525 24.0383L43.2763 23.8859C42.9715 23.5049 42.4382 23.3525 41.8287 23.3525C40.4573 23.3525 39.2382 24.4192 39.0096 25.8668C38.8573 26.6287 39.0858 27.3144 39.4668 27.7716C39.8477 28.2287 40.3811 28.3811 41.0668 28.3811C42.2096 28.3811 42.8192 27.6954 42.8192 27.6954L42.743 28.0763C42.743 28.2287 42.8192 28.3049 42.9715 28.3049H44.1144C44.2668 28.3049 44.4192 28.1525 44.4954 28.0002L45.1811 23.7335C45.1049 23.6573 45.0287 23.5049 44.8763 23.5049ZM43.1239 25.943C42.9715 26.6287 42.4382 27.1621 41.6763 27.1621C41.2954 27.1621 40.9906 27.0097 40.8382 26.8573C40.6858 26.6287 40.6096 26.324 40.6096 25.943C40.6858 25.2573 41.2954 24.724 41.9811 24.724C42.362 24.724 42.5906 24.8763 42.8192 25.0287C43.1239 25.2573 43.2001 25.6383 43.1239 25.943Z" fill="#139AD6"/>
<path d="M32.9135 23.5049H31.6183C31.4659 23.5049 31.3897 23.5811 31.3135 23.6573L29.6374 26.2477L28.8754 23.8096C28.7993 23.6573 28.7231 23.5811 28.4945 23.5811H27.2754C27.1231 23.5811 27.0469 23.7335 27.0469 23.8858L28.4183 27.9239L27.1231 29.7525C27.0469 29.9049 27.1231 30.1335 27.2754 30.1335H28.4945C28.6469 30.1335 28.7231 30.0573 28.7993 29.9811L32.9897 23.962C33.2183 23.7335 33.0659 23.5049 32.9135 23.5049Z" fill="white"/>
<path d="M46.3245 21.2956L45.2578 28.1527C45.2578 28.3051 45.334 28.3813 45.4864 28.3813H46.553C46.7054 28.3813 46.8578 28.2289 46.934 28.0765L48.0007 21.3717C48.0007 21.2194 47.9245 21.1432 47.7721 21.1432H46.553C46.4769 21.067 46.4007 21.1432 46.3245 21.2956Z" fill="#139AD6"/>
<path d="M8.7619 18.7815C8.22857 18.1719 7.2381 17.8672 5.86667 17.8672H2.05714C1.82857 17.8672 1.6 18.0958 1.52381 18.3243L0 28.3053C0 28.5339 0.152381 28.6862 0.304762 28.6862H2.66667L3.27619 24.9529V25.1053C3.35238 24.8767 3.58095 24.6481 3.80952 24.6481H4.95238C7.1619 24.6481 8.8381 23.7339 9.37143 21.2196C9.37143 21.1434 9.37143 21.0672 9.37143 20.991C9.29524 20.991 9.29524 20.991 9.37143 20.991C9.44762 20.0005 9.29524 19.391 8.7619 18.7815Z" fill="white"/>
<path d="M9.29464 20.9902C9.29464 21.0664 9.29464 21.1426 9.29464 21.2188C8.76131 23.8093 7.08512 24.6474 4.8756 24.6474H3.73274C3.50417 24.6474 3.2756 24.8759 3.1994 25.1045L2.4375 29.7521C2.4375 29.9045 2.51369 30.0569 2.74226 30.0569H4.72321C4.95179 30.0569 5.18036 29.9045 5.18036 29.6759V29.5998L5.56131 27.2379V27.0855C5.56131 26.8569 5.78988 26.7045 6.01845 26.7045H6.32321C8.22798 26.7045 9.75179 25.9426 10.1327 23.6569C10.2851 22.7426 10.2089 21.9045 9.75179 21.3712C9.6756 21.2188 9.52321 21.0664 9.29464 20.9902Z" fill="#139AD6"/>
<path d="M8.76111 20.7618C8.68491 20.7618 8.60872 20.6856 8.53253 20.6856C8.45634 20.6856 8.38015 20.6856 8.30396 20.6094C7.9992 20.5332 7.69444 20.5332 7.31349 20.5332H4.34206C4.26587 20.5332 4.18968 20.5332 4.11349 20.6094C3.9611 20.6856 3.88491 20.838 3.88491 20.9903L3.27539 24.9523V25.1046C3.35158 24.8761 3.58015 24.6475 3.80872 24.6475H4.95158C7.1611 24.6475 8.8373 23.7332 9.37063 21.2189C9.37063 21.1427 9.37063 21.0665 9.44682 20.9903C9.29444 20.9142 9.21825 20.838 9.06587 20.838C8.8373 20.7618 8.8373 20.7618 8.76111 20.7618Z" fill="#139AD6" fill-opacity="0.8"/>
</g>
<defs>
<clipPath id="clip0_2_2460">
<rect width="48" height="48" fill="white"/>
</clipPath>
</defs>
</svg>
