<svg width="25" height="24" viewBox="0 0 25 24" fill="none" xmlns="http://www.w3.org/2000/svg">
<path d="M19.9916 12.2611C20.0028 12.1775 20.0028 12.0928 19.9916 12.0092V11.9488C19.9911 11.8418 19.9692 11.7358 19.927 11.6364C19.8824 11.5233 19.8128 11.4203 19.7227 11.3341L14.3455 6.29632C14.143 6.10659 13.8684 6 13.582 6C13.2956 6 13.0209 6.10659 12.8184 6.29632C12.6159 6.48605 12.5021 6.74337 12.5021 7.01169C12.5021 7.28001 12.6159 7.53733 12.8184 7.72706L16.3889 10.9412H6.07544C5.79021 10.9412 5.51667 11.0474 5.31499 11.2363C5.1133 11.4253 5 11.6815 5 11.9488C5 12.216 5.1133 12.4723 5.31499 12.6612C5.51667 12.8502 5.79021 12.9563 6.07544 12.9563H16.3889L12.8399 16.2712C12.7391 16.3649 12.6591 16.4763 12.6045 16.5991C12.5499 16.7219 12.5218 16.8536 12.5218 16.9866C12.5218 17.1196 12.5499 17.2513 12.6045 17.3741C12.6591 17.4969 12.7391 17.6083 12.8399 17.702C12.9399 17.7964 13.0588 17.8714 13.1899 17.9225C13.3209 17.9737 13.4615 18 13.6035 18C13.7455 18 13.886 17.9737 14.0171 17.9225C14.1481 17.8714 14.2671 17.7964 14.367 17.702L19.7442 12.6641C19.831 12.5756 19.9002 12.4732 19.9485 12.3619C19.9693 12.331 19.9838 12.2968 19.9916 12.2611Z" fill="white"/>
</svg>
