<svg width="48" height="48" viewBox="0 0 48 48" fill="none" xmlns="http://www.w3.org/2000/svg">
<path d="M18.2253 16.5207L11.9421 31.5137H7.84106L4.75125 19.5496C4.56103 18.8117 4.39847 18.5433 3.82809 18.23C2.89378 17.7249 1.35694 17.251 0 16.956L0.0949688 16.5208H6.693C7.5345 16.5208 8.29106 17.082 8.48128 18.0496L10.1151 26.7273L14.1504 16.5208L18.2253 16.5207ZM34.289 26.6164C34.3072 22.6615 28.8165 22.4462 28.856 20.6769C28.8667 20.1368 29.3785 19.5653 30.4996 19.421C31.0563 19.347 32.5882 19.2927 34.3246 20.0898L35.0051 16.9119C34.0709 16.5728 32.8701 16.248 31.3776 16.248C27.5442 16.248 24.8456 18.287 24.8228 21.2044C24.7977 23.3619 26.7482 24.5657 28.2194 25.2842C29.7301 26.0194 30.2352 26.4888 30.2299 27.1482C30.2199 28.1545 29.0245 28.5943 27.9095 28.614C25.959 28.6444 24.8277 28.087 23.9242 27.6662L23.2221 30.9534C24.1269 31.3689 25.8025 31.7296 27.5365 31.7509C31.6108 31.7507 34.2761 29.7335 34.289 26.6164ZM44.412 31.5138H48L44.8692 16.5208H41.5569C40.8127 16.5208 40.1852 16.9548 39.9057 17.6198L34.0893 31.5138H38.1604L38.9685 29.2747H43.9449L44.412 31.5138ZM40.0841 26.2017L42.1265 20.5721L43.3014 26.2017H40.0841ZM23.768 16.5207L20.5589 31.5137H16.6796L19.8894 16.5207H23.768Z" fill="white"/>
</svg>
