<svg width="22" height="22" viewBox="0 0 22 22" fill="none" xmlns="http://www.w3.org/2000/svg">
<g clip-path="url(#clip0_2_2435)">
<path d="M11.387 4.125C14.1929 4.125 16.4874 4.17227 18.6101 4.2668H18.6702C19.6628 4.2668 20.4749 5.21211 20.4749 6.37656V6.42383L20.4792 6.47109C20.578 7.93203 20.6253 9.44883 20.6253 10.9785C20.6296 12.5082 20.578 14.025 20.4792 15.4859L20.4749 15.5332V15.5805C20.4749 16.1734 20.2729 16.7234 19.8991 17.1316C19.564 17.5012 19.1257 17.7074 18.6702 17.7074H18.6015C16.3284 17.8148 13.9265 17.8707 11.4515 17.8707H10.996H11.0003H10.5319C8.04834 17.8707 5.64639 17.8148 3.39053 17.7117H3.32178C2.86631 17.7117 2.43232 17.5055 2.09717 17.1359C1.72764 16.7277 1.52139 16.1777 1.52139 15.5848V15.5375L1.51709 15.4902C1.41396 14.025 1.3667 12.5082 1.37529 10.9914V10.9828C1.37099 9.46602 1.41826 7.95352 1.51709 6.48828L1.52139 6.44102V6.39375C1.52139 5.225 2.3292 4.27539 3.32178 4.27539H3.38193C5.50888 4.17656 7.80342 4.13359 10.6093 4.13359H11.387M11.387 2.75H10.6136C8.13857 2.75 5.70654 2.78438 3.32607 2.8918C1.57295 2.8918 0.150682 4.45156 0.150682 6.38516C0.0432601 7.92344 -0.0040055 9.45312 0.000291374 10.9871C-0.0040055 12.5211 0.0389633 14.0508 0.146385 15.5848C0.146385 17.5184 1.56865 19.091 3.32178 19.091C5.67646 19.2027 8.07842 19.2543 10.5319 19.2543H11.4601C13.9136 19.2543 16.3155 19.2027 18.6745 19.091C20.4319 19.091 21.8542 17.5184 21.8542 15.5848C21.9573 14.0508 22.0046 12.5168 22.0003 10.9828C22.0046 9.44883 21.9573 7.91914 21.8542 6.38086C21.8542 4.44727 20.4319 2.89609 18.6745 2.89609C16.294 2.78438 13.8663 2.75 11.387 2.75Z" fill="#BB9BFF"/>
<path d="M10.3252 14.2328C9.71651 14.6451 8.89453 14.209 8.89453 13.4739V8.4906C8.89453 7.75544 9.71651 7.31937 10.3252 7.73161L14.0043 10.2232C14.5412 10.5868 14.5412 11.3776 14.0043 11.7412L10.3252 14.2328Z" fill="#BB9BFF"/>
</g>
<defs>
<clipPath id="clip0_2_2435">
<rect width="22" height="22" fill="white"/>
</clipPath>
</defs>
</svg>
